<?xml version="1.0" encoding="utf-8"?>
<!-- Generator: Adobe Illustrator 15.0.0, SVG Export Plug-In . SVG Version: 6.00 Build 0)  -->
<!DOCTYPE svg PUBLIC "-//W3C//DTD SVG 1.1//EN" "http://www.w3.org/Graphics/SVG/1.1/DTD/svg11.dtd">
<svg version="1.1" id="Layer_1" xmlns="http://www.w3.org/2000/svg" xmlns:xlink="http://www.w3.org/1999/xlink" x="0px" y="0px"
	 width="32px" height="32px" viewBox="0 0 32 32" enable-background="new 0 0 32 32" xml:space="preserve">
<g id="check">
	<polygon points="12.915,19.558 10.311,16.954 9.477,17.789 12.903,21.216 12.915,21.203 12.926,21.216 22.523,11.618 21.688,10.784 
	"/>
	<g>
		<defs>
			<rect id="SVGID_1_" x="0.5" y="0.5" width="31" height="31"/>
		</defs>
		<clipPath id="SVGID_2_">
			<use xlink:href="#SVGID_1_"  overflow="visible"/>
		</clipPath>
		<g clip-path="url(#SVGID_2_)">
			<path d="M16,31.5C7.453,31.5,0.5,24.547,0.5,16C0.5,7.454,7.453,0.5,16,0.5S31.5,7.453,31.5,16S24.547,31.5,16,31.5z M16,1.68
				C8.104,1.68,1.68,8.104,1.68,16c0,7.896,6.424,14.32,14.32,14.32c7.896,0,14.32-6.425,14.32-14.32
				C30.32,8.104,23.896,1.68,16,1.68z"/>
		</g>
	</g>
</g>
</svg>
