<?xml version="1.0" encoding="utf-8"?>
<!-- Generator: Adobe Illustrator 15.0.0, SVG Export Plug-In . SVG Version: 6.00 Build 0)  -->
<!DOCTYPE svg PUBLIC "-//W3C//DTD SVG 1.1//EN" "http://www.w3.org/Graphics/SVG/1.1/DTD/svg11.dtd">
<svg version="1.1" id="Layer_1" xmlns="http://www.w3.org/2000/svg" xmlns:xlink="http://www.w3.org/1999/xlink" x="0px" y="0px"
	 width="44px" height="44px" viewBox="0 0 44 44" enable-background="new 0 0 44 44" xml:space="preserve">
	 <g id="client">
<path d="M39.186,31.352c1.082-0.76,1.795-2.014,1.795-3.432c0-2.316-1.883-4.201-4.199-4.201c-2.314,0-4.199,1.885-4.199,4.201
	c0,1.429,0.723,2.689,1.816,3.449c-2.619,0.561-4.184,2.096-4.447,4.416c-1.311-0.933-3.006-1.564-5.047-1.871
	c2.145-1.123,3.611-3.367,3.611-5.949c0-3.702-3.014-6.715-6.716-6.715c-3.701,0-6.714,3.013-6.714,6.715
	c0,2.6,1.487,4.853,3.651,5.969c-1.878,0.296-3.457,0.872-4.711,1.706c-0.314-2.261-1.892-3.753-4.499-4.288
	c1.082-0.76,1.795-2.014,1.795-3.432c0-2.316-1.884-4.201-4.199-4.201c-2.316,0-4.199,1.885-4.199,4.201
	c0,1.43,0.721,2.69,1.816,3.449c-2.882,0.616-4.49,2.41-4.49,5.135c0,0.273,0.221,0.494,0.494,0.494s0.494-0.221,0.494-0.494
	c0-3.816,3.718-4.387,5.934-4.387c2.668,0,5.835,0.745,5.923,4.241c-1.625,1.464-2.498,3.492-2.498,6.022
	c0,0.272,0.222,0.494,0.494,0.494c0.273,0,0.495-0.222,0.495-0.494c0-6.701,6.451-7.701,10.296-7.701c3.847,0,10.298,1,10.298,7.701
	c0,0.272,0.221,0.494,0.492,0.494c0.273,0,0.496-0.222,0.496-0.494c0-2.42-0.791-4.387-2.279-5.834c0-0.016,0.008-0.027,0.008-0.043
	c0-3.817,3.717-4.389,5.932-4.389c2.707,0,5.936,0.762,5.936,4.389c0,0.272,0.221,0.494,0.492,0.494
	c0.273,0,0.494-0.222,0.494-0.494C43.75,33.754,42.113,31.951,39.186,31.352z M3.912,27.92c0-1.771,1.44-3.211,3.211-3.211
	c1.77,0,3.21,1.439,3.21,3.211c0,1.77-1.44,3.209-3.21,3.209S3.912,29.688,3.912,27.92z M16.075,27.965
	c0-3.157,2.568-5.726,5.725-5.726c3.158,0,5.728,2.568,5.728,5.726s-2.57,5.727-5.728,5.727
	C18.644,33.69,16.075,31.123,16.075,27.965z M33.57,27.92c0-1.771,1.439-3.211,3.209-3.211c1.771,0,3.211,1.439,3.211,3.211
	c0,1.77-1.439,3.209-3.211,3.209C35.012,31.129,33.57,29.688,33.57,27.92z"/>
	</g>
</svg>
