<?xml version="1.0" encoding="utf-8"?>
<!-- Generator: Adobe Illustrator 15.0.0, SVG Export Plug-In . SVG Version: 6.00 Build 0)  -->
<!DOCTYPE svg PUBLIC "-//W3C//DTD SVG 1.1//EN" "http://www.w3.org/Graphics/SVG/1.1/DTD/svg11.dtd">
<svg version="1.1" id="Layer_1" xmlns="http://www.w3.org/2000/svg" xmlns:xlink="http://www.w3.org/1999/xlink" x="0px" y="0px"
	 width="32px" height="32px" viewBox="0 0 32 32" enable-background="new 0 0 32 32" xml:space="preserve">
<g id="clock">
	<g>
		<g>
			<defs>
				<rect id="SVGID_1_" x="0.5" y="0.5" width="31" height="31"/>
			</defs>
			<clipPath id="SVGID_2_">
				<use xlink:href="#SVGID_1_"  overflow="visible"/>
			</clipPath>
			<path clip-path="url(#SVGID_2_)" d="M16,0.5C7.453,0.5,0.5,7.453,0.5,15.998C0.5,24.547,7.453,31.5,16,31.5
				c8.549,0,15.499-6.953,15.499-15.502C31.5,7.453,24.549,0.5,16,0.5 M16,30.414C8.055,30.414,1.588,23.947,1.588,16
				C1.588,8.051,8.055,1.585,16,1.585c7.947,0,14.415,6.466,14.415,14.415C30.415,23.947,23.947,30.414,16,30.414"/>
		</g>
	</g>
	<g>
		<g>
			<defs>
				<rect id="SVGID_3_" x="0.5" y="0.5" width="31" height="31"/>
			</defs>
			<clipPath id="SVGID_4_">
				<use xlink:href="#SVGID_3_"  overflow="visible"/>
			</clipPath>
			<polygon clip-path="url(#SVGID_4_)" points="15.457,15.457 5.613,15.457 5.613,16.541 15.457,16.541 16,16.541 16.543,16.541 
				16.543,6.517 15.457,6.517 			"/>
		</g>
	</g>
</g>
<rect fill="none" width="32" height="32"/>
</svg>
