<?xml version="1.0" encoding="utf-8"?>
<!-- Generator: Adobe Illustrator 15.0.0, SVG Export Plug-In . SVG Version: 6.00 Build 0)  -->
<!DOCTYPE svg PUBLIC "-//W3C//DTD SVG 1.1//EN" "http://www.w3.org/Graphics/SVG/1.1/DTD/svg11.dtd">
<svg version="1.1" id="Layer_1" xmlns="http://www.w3.org/2000/svg" xmlns:xlink="http://www.w3.org/1999/xlink" x="0px" y="0px"
	 width="44px" height="44px" viewBox="0 0 44 44" enable-background="new 0 0 44 44" xml:space="preserve">
	 <g id="vendor">
<path d="M43.256,15.44H24.674c-0.654-2.401-2.626-3.938-5.677-4.473c1.479-0.9,2.478-2.513,2.478-4.366
	c0-2.825-2.299-5.123-5.123-5.123c-2.826,0-5.125,2.298-5.125,5.123c0,1.865,1.013,3.485,2.507,4.382
	c-3,0.549-4.935,2.08-5.584,4.457H0.744c-0.273,0-0.494,0.222-0.494,0.494v3.877c0,0.273,0.221,0.494,0.494,0.494h1.064v21.722
	c0,0.273,0.221,0.494,0.495,0.494h3.22h21.386h14.977c0.273,0,0.494-0.221,0.494-0.494V20.306h0.877
	c0.273,0,0.494-0.221,0.494-0.494v-3.877C43.75,15.663,43.529,15.44,43.256,15.44z M12.215,6.602c0-2.28,1.856-4.135,4.136-4.135
	c2.279,0,4.134,1.854,4.134,4.135c0,2.281-1.855,4.136-4.134,4.136C14.071,10.737,12.215,8.881,12.215,6.602z M16.412,11.726
	c2.305,0,6.186,0.503,7.25,3.715H9.159C10.225,12.229,14.104,11.726,16.412,11.726z M2.796,20.331h2.231v21.203H2.796V20.331z
	 M6.017,41.533V20.331h20.397v21.203H6.017z M41.391,41.533H27.402V20.331h13.988V41.533z M42.762,19.317H1.238V16.43h41.523V19.317
	z"/>
	</g>
</svg>
