<?xml version="1.0" encoding="utf-8"?>
<!-- Generator: Adobe Illustrator 15.0.0, SVG Export Plug-In . SVG Version: 6.00 Build 0)  -->
<!DOCTYPE svg PUBLIC "-//W3C//DTD SVG 1.1//EN" "http://www.w3.org/Graphics/SVG/1.1/DTD/svg11.dtd">
<svg version="1.1" id="Layer_1" xmlns="http://www.w3.org/2000/svg" xmlns:xlink="http://www.w3.org/1999/xlink" x="0px" y="0px"
	 width="32px" height="32px" viewBox="0 0 32 32" enable-background="new 0 0 32 32" xml:space="preserve">
<g id="card">
	<path d="M28.525,9.699H3.473c-1.641,0-2.974,1.333-2.974,2.973v1.68v6.539v7.137C0.5,29.666,1.833,31,3.473,31h25.054
		c1.639,0,2.973-1.334,2.973-2.973v-7.137v-6.539v-1.68C31.498,11.033,30.164,9.699,28.525,9.699z M30.309,28.027
		c0,0.982-0.799,1.783-1.781,1.783H3.473c-0.983,0-1.783-0.801-1.783-1.783V16.273h28.621L30.309,28.027L30.309,28.027z
		 M1.69,15.014v-2.342c0-0.982,0.8-1.783,1.783-1.783h25.054c0.982,0,1.783,0.801,1.783,1.783v2.342H1.69z"/>
	<rect x="21.1" y="25.123" width="5.686" height="1.188"/>
</g>
<rect fill="none" width="32" height="32"/>
</svg>
