<?xml version="1.0" encoding="utf-8"?>
<!-- Generator: Adobe Illustrator 15.0.0, SVG Export Plug-In . SVG Version: 6.00 Build 0)  -->
<!DOCTYPE svg PUBLIC "-//W3C//DTD SVG 1.1//EN" "http://www.w3.org/Graphics/SVG/1.1/DTD/svg11.dtd">
<svg version="1.1" id="Layer_1" xmlns="http://www.w3.org/2000/svg" xmlns:xlink="http://www.w3.org/1999/xlink" x="0px" y="0px"
	 width="32px" height="32px" viewBox="0 0 32 32" enable-background="new 0 0 32 32" xml:space="preserve">
<g id="coin">
	<defs>
		<rect id="SVGID_1_" x="0.985" y="0.5" width="30.029" height="31"/>
	</defs>
	<clipPath id="SVGID_2_">
		<use xlink:href="#SVGID_1_"  overflow="visible"/>
	</clipPath>
	<path clip-path="url(#SVGID_2_)" d="M30.584,19.843c0.272-0.604,0.431-1.248,0.431-1.922c0-3.25-3.472-5.895-7.738-5.895
		c-3.141,0-5.844,1.438-7.055,3.489c0.152-0.46,0.238-0.941,0.238-1.436c0-0.67-0.16-1.312-0.437-1.912
		c0.278-0.605,0.437-1.254,0.437-1.932c0-0.673-0.152-1.318-0.43-1.921c0.273-0.603,0.43-1.247,0.43-1.92
		c0-3.25-3.471-5.896-7.736-5.896c-4.267,0-7.738,2.645-7.738,5.895c0,0.674,0.157,1.319,0.431,1.923
		C1.142,8.92,0.985,9.564,0.985,10.235c0,0.677,0.157,1.322,0.433,1.927c-0.274,0.603-0.433,1.244-0.433,1.916
		c0,0.676,0.157,1.322,0.433,1.927c-0.274,0.601-0.433,1.243-0.433,1.913c0,0.675,0.157,1.32,0.431,1.925
		c-0.273,0.601-0.431,1.246-0.431,1.919c0,0.674,0.157,1.32,0.431,1.922c-0.274,0.604-0.431,1.247-0.431,1.92
		c0,3.252,3.472,5.896,7.736,5.896c3.353,0,6.205-1.637,7.276-3.911c1.074,2.276,3.927,3.911,7.277,3.911
		c4.268,0,7.737-2.645,7.737-5.896c0-0.671-0.16-1.312-0.434-1.911c0.275-0.604,0.434-1.254,0.434-1.931
		C31.015,21.09,30.859,20.443,30.584,19.843 M8.722,30.396c-3.658,0-6.631-2.15-6.631-4.79c0-0.243,0.036-0.479,0.086-0.714
		c1.37,1.661,3.79,2.768,6.545,2.768c2.76,0,5.18-1.109,6.549-2.771c0.05,0.233,0.084,0.472,0.084,0.717
		C15.354,28.246,12.38,30.396,8.722,30.396 M8.722,26.554c-3.658,0-6.631-2.149-6.631-4.79c0-0.244,0.036-0.48,0.085-0.713
		c1.371,1.658,3.79,2.768,6.548,2.768c2.763,0,5.184-1.111,6.554-2.775c0.05,0.234,0.079,0.476,0.079,0.722
		C15.354,24.406,12.38,26.554,8.722,26.554 M8.722,22.713c-3.658,0-6.631-2.149-6.631-4.793c0-0.239,0.036-0.479,0.086-0.711
		c1.37,1.658,3.79,2.767,6.545,2.767c2.761,0,5.181-1.112,6.552-2.772c0.051,0.234,0.081,0.476,0.081,0.717
		C15.354,20.563,12.38,22.713,8.722,22.713 M8.722,18.869c-3.658,0-6.631-2.148-6.631-4.791c0-0.246,0.028-0.486,0.078-0.723
		c1.369,1.664,3.791,2.777,6.556,2.777c2.762,0,5.182-1.111,6.553-2.775c0.051,0.235,0.08,0.477,0.08,0.721
		C15.354,16.721,12.38,18.869,8.722,18.869 M8.722,15.027c-3.658,0-6.631-2.148-6.631-4.791c0-0.242,0.036-0.479,0.086-0.712
		c1.37,1.659,3.79,2.767,6.545,2.767c2.764,0,5.185-1.113,6.555-2.777c0.051,0.236,0.078,0.477,0.078,0.722
		C15.354,12.879,12.38,15.027,8.722,15.027 M8.722,11.187c-3.658,0-6.631-2.149-6.631-4.791c0-2.64,2.975-4.789,6.631-4.789
		c3.658,0,6.633,2.149,6.633,4.789C15.354,9.037,12.38,11.187,8.722,11.187 M23.275,30.396c-3.656,0-6.63-2.15-6.63-4.79
		c0-0.248,0.027-0.487,0.076-0.724c1.369,1.665,3.793,2.775,6.555,2.775c2.763,0,5.186-1.109,6.554-2.773
		c0.054,0.236,0.08,0.475,0.08,0.722C29.908,28.246,26.935,30.396,23.275,30.396 M23.275,26.554c-3.656,0-6.63-2.149-6.63-4.79
		c0-0.244,0.035-0.479,0.084-0.713c1.373,1.658,3.791,2.767,6.547,2.767c2.764,0,5.188-1.112,6.556-2.776
		c0.052,0.235,0.078,0.476,0.078,0.723C29.908,24.406,26.935,26.554,23.275,26.554 M23.275,22.713c-3.656,0-6.63-2.149-6.63-4.792
		c0-2.64,2.974-4.79,6.63-4.79c3.657,0,6.633,2.148,6.633,4.79C29.908,20.563,26.935,22.713,23.275,22.713"/>
</g>
<path fill="none" d="M0,0h32v32H0V0z"/>
<path fill="none" d="M0,0h32v32H0V0z"/>
</svg>
