<?xml version="1.0" encoding="UTF-8"?>
<svg width="348px" height="70px" viewBox="0 0 348 70" version="1.1"
  xmlns="http://www.w3.org/2000/svg"
  xmlns:xlink="http://www.w3.org/1999/xlink">
  <g id="logo" stroke="none" stroke-width="1" fill="none" fill-rule="evenodd">
    <g id="logos-02" fill="#03363E" fill-rule="nonzero">
      <rect id="Rectangle-path" x="49.5" y="1.8" width="5.4" height="46.1"></rect>
      <path d="M33.3,47.9 L20.4,47.9 C8,47.9 0.4,40.6 0.4,28.2 L0.4,1.8 L5.8,1.8 L5.8,28.2 C5.8,37.5 11.3,42.5 20.3,42.5 L33.2,42.5 L33.2,47.9 L33.3,47.9 Z" id="Shape"></path>
      <path d="M240.9,1.8 L260,1.8 C273.8,1.8 284.4,12 284.4,25.5 C284.4,39 273.8,49.2 259.8,49.2 L240.9,49.2 L240.9,1.8 Z M246.4,44.1 L260.2,44.1 C270.8,44.1 279,36.1 279,25.5 C279,14.8 270.6,6.8 260,6.8 L246.4,6.8 L246.4,44.1 Z" id="Shape"></path>
      <path d="M136.3,1.6 L136.3,25.3 L136.3,29.2 C136.3,43.1 146.4,50.2 158.8,50.2 C171.2,50.2 181.2,43 181.2,29.2 L181.2,25.3 L181.2,1.6 L175.8,1.6 L175.8,29.2 C175.8,39.8 168.2,44.8 158.7,44.8 C149,44.8 141.7,39.8 141.7,29.2 L141.7,1.6 L136.3,1.6 Z" id="Shape"></path>
      <path d="M225.4,45.7 C225.4,47.8 223.9,49.3 222,49.3 C220,49.3 218.5,47.7 218.5,45.7 C218.5,43.6 220,42.1 222,42.1 C223.9,42 225.4,43.6 225.4,45.7" id="Shape"></path>
      <rect id="Rectangle-path" x="197.5" y="1.8" width="5.4" height="47.4"></rect>
      <path d="M321.3,5.9 C326.6,5.9 331.6,7.8 335.3,11.2 C339.2,14.8 341.3,20.2 341.3,25.5 C341.3,30.8 339.2,36.2 335.3,39.8 C331.6,43.3 326.6,45.2 321.3,45.2 C316,45.2 311,43.3 307.2,39.8 C303.3,36.2 301.2,30.8 301.2,25.5 C301.2,20.4 303.2,15 306.9,11.5 C310.7,7.9 315.8,5.9 321.3,5.9 M321.3,0.5 C314,0.5 307.5,3.2 302.9,7.7 C298.2,12.2 295.3,18.4 295.3,25.4 C295.3,32.6 298.3,38.9 303.2,43.5 C307.9,47.8 314.2,50.4 321.3,50.4 C328.3,50.4 334.7,47.8 339.3,43.5 C344.2,39 347.2,32.6 347.2,25.4 C347.2,18.2 344.2,11.9 339.3,7.4 C334.7,3.1 328.4,0.5 321.3,0.5" id="Shape"></path>
      <path d="M115.3,59.7 C109.8,62.5 103.5,63.9 97,63.9 C90.5,63.9 84.2,62.4 78.6,59.7 L76.1,64.3 C76.1,64.3 76.1,64.3 76.1,64.3 C82.3,67.4 89.4,69.1 97,69.1 C104.5,69.1 111.6,67.4 117.8,64.3 C117.8,64.3 117.8,64.3 117.8,64.3 L115.3,59.7 Z" id="Shape"></path>
      <path d="M97,5.9 C102.3,5.9 107.3,7.8 111,11.2 C114.9,14.8 117,20.2 117,25.5 C117,30.8 114.9,36.2 111,39.8 C107.3,43.3 102.3,45.2 97,45.2 C91.7,45.2 86.7,43.3 82.9,39.8 C79,36.2 76.9,30.8 76.9,25.5 C76.9,20.4 78.9,15 82.6,11.5 C86.4,7.9 91.5,5.9 97,5.9 M97,0.5 C89.7,0.5 83.2,3.2 78.6,7.7 C73.9,12.2 71,18.4 71,25.4 C71,32.6 74,38.9 78.9,43.5 C83.6,47.8 89.9,50.4 97,50.4 C104,50.4 110.4,47.8 115,43.5 C119.9,39 122.9,32.6 122.9,25.4 C122.9,18.2 119.9,11.9 115,7.4 C110.4,3.1 104,0.5 97,0.5" id="Shape"></path>
    </g>
  </g>
</svg>
