<?xml version="1.0" encoding="UTF-8"?>
<svg width="52px" height="70px" viewBox="0 0 52 70" version="1.1"
  xmlns="http://www.w3.org/2000/svg"
  xmlns:xlink="http://www.w3.org/1999/xlink">
  <!-- Generator: Sketch 50.2 (55047) - http://www.bohemiancoding.com/sketch -->
  <g id="logo" stroke="none" stroke-width="1" fill-rule="evenodd" class="fill-color">
    <g id="logos-03" class="fill-color">
      <path d="M44.3,59.7 C38.8,62.5 32.5,63.9 26,63.9 C19.5,63.9 13.2,62.4 7.6,59.7 L5.1,64.3 C5.1,64.3 5.1,64.3 5.1,64.3 C11.3,67.4 18.4,69.1 26,69.1 C33.5,69.1 40.6,67.4 46.8,64.3 C46.8,64.3 46.8,64.3 46.8,64.3 L44.3,59.7 Z" id="Shape"></path>
      <path d="M26,5.9 C31.3,5.9 36.3,7.8 40,11.2 C43.9,14.8 46,20.2 46,25.5 C46,30.8 43.9,36.2 40,39.8 C36.3,43.3 31.3,45.2 26,45.2 C20.7,45.2 15.7,43.3 11.9,39.8 C8,36.2 5.9,30.8 5.9,25.5 C5.9,20.4 7.9,15 11.6,11.5 C15.4,7.9 20.5,5.9 26,5.9 M26,0.5 C18.7,0.5 12.2,3.2 7.6,7.7 C2.9,12.2 0,18.4 0,25.4 C0,32.6 3,38.9 7.9,43.5 C12.6,47.8 18.9,50.4 26,50.4 C33,50.4 39.4,47.8 44,43.5 C48.9,39 51.9,32.6 51.9,25.4 C51.9,18.2 48.9,11.9 44,7.4 C39.4,3.1 33,0.5 26,0.5" id="Shape"></path>
    </g>
  </g>
</svg>
