<?xml version="1.0" encoding="UTF-8"?>
<svg width="60px" height="54px" viewBox="0 0 60 54" version="1.1" xmlns="http://www.w3.org/2000/svg" xmlns:xlink="http://www.w3.org/1999/xlink">
    <!-- Generator: Sketch 51.1 (57501) - http://www.bohemiancoding.com/sketch -->
    <title>icones_finais-29</title>
    <desc>Created with Sketch.</desc>
    <defs></defs>
    <g id="help-center" stroke="none" stroke-width="1" fill="none" fill-rule="evenodd">
        <g id="Help-center-login" transform="translate(-930.000000, -942.000000)" fill="#00ACC1" fill-rule="nonzero">
            <g id="Group-4" transform="translate(0.000000, 673.000000)">
                <g id="icones_finais-29" transform="translate(930.000000, 269.000000)">
                    <path d="M0.290816327,0.642857143 L0.290816327,53.4030612 L59.7091837,53.4030612 L59.7091837,0.642857143 L0.290816327,0.642857143 Z M57.6887755,2.66326531 L57.6887755,14.4642857 L2.44897959,14.4642857 L2.44897959,2.66326531 L57.6887755,2.66326531 Z M2.44897959,51.3826531 L2.44897959,16.4846939 L57.5510204,16.4846939 L57.5510204,51.3826531 L2.44897959,51.3826531 Z" id="Shape"></path>
                    <rect id="Rectangle-path" x="11.7704082" y="20.0204082" width="6.29081633" height="6.29081633"></rect>
                    <rect id="Rectangle-path" x="26.8316327" y="20.0204082" width="6.29081633" height="6.29081633"></rect>
                    <rect id="Rectangle-path" x="41.9387755" y="20.0204082" width="6.29081633" height="6.29081633"></rect>
                    <rect id="Rectangle-path" x="11.7704082" y="30.8571429" width="6.29081633" height="6.29081633"></rect>
                    <rect id="Rectangle-path" x="26.8316327" y="30.8571429" width="6.29081633" height="6.29081633"></rect>
                    <rect id="Rectangle-path" x="41.9387755" y="30.8571429" width="6.29081633" height="6.29081633"></rect>
                    <rect id="Rectangle-path" x="11.7704082" y="41.6938776" width="6.29081633" height="6.29081633"></rect>
                    <rect id="Rectangle-path" x="26.8316327" y="41.6938776" width="6.29081633" height="6.29081633"></rect>
                    <rect id="Rectangle-path" x="41.9387755" y="41.6938776" width="6.29081633" height="6.29081633"></rect>
                </g>
            </g>
        </g>
    </g>
</svg>