<?xml version="1.0" encoding="UTF-8"?>
<svg width="57px" height="56px" viewBox="0 0 57 56" version="1.1" xmlns="http://www.w3.org/2000/svg" xmlns:xlink="http://www.w3.org/1999/xlink">
    <!-- Generator: Sketch 51.1 (57501) - http://www.bohemiancoding.com/sketch -->
    <title>icones_finais-22</title>
    <desc>Created with Sketch.</desc>
    <defs></defs>
    <g id="help-center" stroke="none" stroke-width="1" fill="none" fill-rule="evenodd">
        <g id="Help-center-login" transform="translate(-1342.000000, -940.000000)" fill="#00ACC1" fill-rule="nonzero">
            <g id="Group-4" transform="translate(0.000000, 673.000000)">
                <g id="icones_finais-22" transform="translate(1342.000000, 267.000000)">
                    <polygon id="Shape" points="22.7285714 34.3428571 18.0571429 29.6714286 16.6 31.1714286 22.7285714 37.3 22.7285714 37.2571429 22.7714286 37.3 39.9571429 20.1142857 38.4571429 18.6142857"></polygon>
                    <path d="M28.2571429,55.7285714 C17.0207513,55.728558 6.89157996,48.9576202 2.59561373,38.574886 C-1.70035251,28.1921519 0.683518643,16.2438101 8.6349803,8.30461926 C16.586442,0.36542838 28.5384511,-1.9999869 38.9145382,2.31200931 C49.2906253,6.62400552 56.0459115,16.7636219 56.0285714,28 C55.9814053,43.3112111 43.5684086,55.705052 28.2571429,55.7285714 Z M28.2571429,2.32857143 C14.055535,2.32857143 2.54285714,13.8412493 2.54285714,28.0428571 C2.54285714,42.244465 14.055535,53.7571429 28.2571429,53.7571429 C42.4587507,53.7571429 53.9714286,42.244465 53.9714286,28.0428571 C53.9828074,21.2155821 51.2786556,14.6640374 46.4550577,9.83240017 C41.6314599,5.00076296 35.0844274,2.2857048 28.2571429,2.28571429 L28.2571429,2.32857143 Z" id="Shape"></path>
                </g>
            </g>
        </g>
    </g>
</svg>