<?xml version="1.0" encoding="UTF-8"?>
<svg width="55px" height="55px" viewBox="0 0 55 55" version="1.1" xmlns="http://www.w3.org/2000/svg" xmlns:xlink="http://www.w3.org/1999/xlink">
    <!-- Generator: Sketch 46.2 (44496) - http://www.bohemiancoding.com/sketch -->
    <title>Group 13</title>
    <desc>Created with Sketch.</desc>
    <defs></defs>
    <g id="Symbols" stroke="none" stroke-width="1" fill="none" fill-rule="evenodd">
        <g id="Group-13">
            <rect id="Rectangle-5-Copy-3" fill-opacity="0.01" fill="#FFFFFF" x="0" y="0" width="55" height="55"></rect>
            <g id="head-copy" transform="translate(8.000000, 2.000000)" fill-rule="nonzero" fill="#00B5FF">
                <path d="M12.2272597,11.7536074 C12.2272597,13.8104414 12.9946987,15.893373 14.3328545,17.4681973 C15.7473896,19.1329687 17.5979143,20.0497734 19.5436597,20.0497734 C21.4892026,20.0497734 23.3376,19.1333672 24.7485896,17.4693926 C26.0822883,15.8964609 26.8471948,13.8144258 26.8471948,11.7570937 L26.8471948,10.0144277 C27.8332364,5.84946094 27.4665351,2.42967187 27.1308312,1.41923437 C27.0136286,1.06651758 26.6701247,0.849867187 26.3102104,0.872179687 C26.2536857,0.868195312 26.1958442,0.869589844 26.1374961,0.877757812 C25.0751766,1.02577734 23.7454286,0.765199219 22.3372753,0.489181641 C20.0056831,0.0322734375 17.3746519,-0.482707031 15.3120078,0.870087891 C12.9956104,0.874570312 11.3152675,2.67839648 11.3152675,5.16275391 C11.3152675,6.95970703 12.0812883,10.2361582 12.2272597,10.8441738 L12.2272597,11.7536074 Z M23.5037299,16.4487949 C22.4061584,17.7432188 20.9998286,18.4560234 19.5436597,18.4560234 C18.0866805,18.4560234 16.6778182,17.7423223 15.5766,16.4463047 C14.4780156,15.1534746 13.848039,13.4429824 13.848039,11.7536074 L13.848039,11.0622188 C13.848039,9.84718359 14.6413091,8.11119141 15.1178182,7.22098242 C18.1326701,6.89964258 20.5364883,7.23941016 22.0445221,7.59282422 C23.2622338,7.87820508 24.1016961,8.21508398 24.4867325,8.38681055 L25.2263143,10.0879395 L25.2263143,11.7570938 C25.2265169,13.4475645 24.5985662,15.1575586 23.5037299,16.4487949 Z M15.3207195,2.46353906 C15.3625558,2.46353906 15.4033792,2.45945508 15.4434935,2.45347852 C15.6526753,2.48565234 15.8743169,2.43823828 16.0566545,2.30296875 C17.5711714,1.18007227 19.8331714,1.62343359 22.0205143,2.05215234 C23.1816,2.27975977 24.3735818,2.51334375 25.4783455,2.51334375 C25.5590805,2.51334375 25.6393091,2.51184961 25.7191325,2.50925977 C25.8629766,3.43094531 25.9609325,5.13854883 25.7000883,7.25196094 C25.6419429,7.19169727 25.5749844,7.13950195 25.4996182,7.09925977 C25.327613,7.00741992 21.2210649,4.86541992 14.5650312,5.67833203 C14.3027688,5.69327344 14.0527636,5.83282617 13.9106416,6.07278516 C13.8803532,6.12398438 13.5497143,6.68747461 13.1894961,7.48295508 C13.0465636,6.63757031 12.9359455,5.78381836 12.9359455,5.1626543 C12.9360468,3.81922266 13.6734,2.46353906 15.3207195,2.46353906 Z" id="Shape"></path>
                <path d="M7.89562597,28.6835156 L31.1758909,28.6835156 C32.3633143,28.6835156 33.3294,27.8111367 33.3294,26.7387422 L33.3294,25.6548926 C33.3294,23.771877 32.1076364,21.5315625 29.7727013,20.8929668 C29.7553792,20.8882852 29.7379558,20.8841016 29.7203299,20.8805156 L26.2944078,20.1810586 L25.4157429,18.8805586 C25.4067273,18.8671113 25.3972052,18.8539629 25.3873792,18.8411133 C25.1828571,18.574957 24.8720727,18.3991465 24.5346468,18.3588047 C24.1972208,18.3185625 23.8519948,18.4161797 23.588213,18.6268535 C23.5829455,18.6310371 23.5777792,18.6352207 23.572613,18.6396035 L19.5358597,22.0314023 L15.4991065,18.6396035 C15.4940416,18.6353203 15.488774,18.6310371 15.4836078,18.6268535 C15.219826,18.4161797 14.8752078,18.3182637 14.537174,18.3588047 C14.1997481,18.3991465 13.8889636,18.5748574 13.6844416,18.8411133 C13.6746156,18.8539629 13.6650935,18.8671113 13.6560779,18.8805586 L12.777413,20.1810586 L9.35149091,20.8805156 C9.33386494,20.8841016 9.31644156,20.8882852 9.29911948,20.8929668 C6.96408312,21.5315625 5.74242078,23.771877 5.74242078,25.6548926 L5.74242078,26.7387422 C5.74211688,27.8110371 6.7082026,28.6835156 7.89562597,28.6835156 Z M18.738639,25.0124121 L19.539,24.2126484 L20.3595195,25.0237676 L20.3595195,27.0897656 L18.738639,27.0897656 L18.738639,25.0124121 Z M31.7086208,25.6548926 L31.7086208,26.7387422 C31.7086208,26.904791 31.4898156,27.0897656 31.1758909,27.0897656 L21.9802987,27.0897656 L21.9802987,26.2928906 C21.9934675,26.2928906 22.0067377,26.2925918 22.0199065,26.2919941 C22.2490442,26.2809375 22.4627844,26.1749531 22.6079455,26.0002383 L26.120174,21.7732148 L29.3628468,22.4352188 C30.9029922,22.8699141 31.7086208,24.3803906 31.7086208,25.6548926 Z M24.3066234,20.1191016 L24.7976182,20.8458516 L21.9211403,24.3075762 L20.7267273,23.1270059 L24.3066234,20.1191016 Z M14.7648935,20.1191016 L18.3483351,23.1300938 L17.1715481,24.306082 L14.275013,20.8441582 L14.7648935,20.1191016 Z M7.3628961,25.6548926 C7.3628961,24.3803906 8.16852468,22.8700137 9.70867013,22.4353184 L12.9532675,21.772916 L16.4919351,26.0023301 C16.6378052,26.1767461 16.8522545,26.2821328 17.0816961,26.2921934 C17.0937506,26.2926914 17.1057039,26.2929902 17.1177584,26.2929902 L17.1177584,27.0898652 L7.89552468,27.0898652 C7.5816,27.0898652 7.36279481,26.9048906 7.36279481,26.7388418 L7.36279481,25.6548926 L7.3628961,25.6548926 Z" id="Shape"></path>
                <path d="M34.9471403,37.4495391 L34.9471403,42.2309883 C34.9471403,42.6710625 35.3099922,43.0278633 35.7575299,43.0278633 C36.2050675,43.0278633 36.5679195,42.6710625 36.5679195,42.2309883 L36.5679195,37.4495391 C36.5679195,35.2524551 34.7501143,33.4650645 32.5158701,33.4650645 L20.3594182,33.4650645 L20.3594182,31.0743398 C20.3594182,30.6342656 19.9965662,30.2774648 19.5490286,30.2774648 C19.1014909,30.2774648 18.738639,30.6342656 18.738639,31.0743398 L18.738639,33.4650645 L6.58228831,33.4650645 C4.34794286,33.4650645 2.53023896,35.2524551 2.53023896,37.4495391 L2.53023896,42.2309883 C2.53023896,42.6710625 2.89309091,43.0278633 3.34062857,43.0278633 C3.78816623,43.0278633 4.15101818,42.6710625 4.15101818,42.2309883 L4.15101818,37.4495391 C4.15101818,36.1313086 5.2417013,35.0588145 6.58228831,35.0588145 L18.738639,35.0588145 L18.738639,42.2309883 C18.738639,42.6710625 19.1014909,43.0278633 19.5490286,43.0278633 C19.9965662,43.0278633 20.3594182,42.6710625 20.3594182,42.2309883 L20.3594182,35.0588145 L32.5157688,35.0588145 C33.8564571,35.0588145 34.9471403,36.131209 34.9471403,37.4495391 Z" id="Shape"></path>
                <path d="M19.5490286,44.6217129 C17.7615117,44.6217129 16.3073688,46.0517051 16.3073688,47.8093125 C16.3073688,49.5670195 17.7615117,50.9969121 19.5490286,50.9969121 C21.3365455,50.9969121 22.7906883,49.5670195 22.7906883,47.8093125 C22.7906883,46.0516055 21.3365455,44.6217129 19.5490286,44.6217129 Z M19.5490286,49.4031621 C18.6552701,49.4031621 17.9281481,48.688166 17.9281481,47.8093125 C17.9281481,46.930459 18.6552701,46.2154629 19.5490286,46.2154629 C20.442787,46.2154629 21.1699091,46.930459 21.1699091,47.8093125 C21.1699091,48.688166 20.442787,49.4031621 19.5490286,49.4031621 Z" id="Shape"></path>
                <path d="M35.7575299,44.6217129 C33.970013,44.6217129 32.5158701,46.0517051 32.5158701,47.8093125 C32.5158701,49.5670195 33.970013,50.9969121 35.7575299,50.9969121 C37.5449455,50.9969121 38.9990883,49.5670195 38.9990883,47.8093125 C38.9990883,46.0516055 37.5449455,44.6217129 35.7575299,44.6217129 Z M35.7575299,49.4031621 C34.8637714,49.4031621 34.1366494,48.688166 34.1366494,47.8093125 C34.1366494,46.930459 34.8637714,46.2154629 35.7575299,46.2154629 C36.6512883,46.2154629 37.3783091,46.930459 37.3783091,47.8093125 C37.3783091,48.688166 36.651187,49.4031621 35.7575299,49.4031621 Z" id="Shape"></path>
                <path d="M3.34062857,44.6217129 C1.55311169,44.6217129 0.0989688312,46.0517051 0.0989688312,47.8093125 C0.0989688312,49.5670195 1.55311169,50.9969121 3.34062857,50.9969121 C5.12814545,50.9969121 6.58228831,49.5670195 6.58228831,47.8093125 C6.58228831,46.0516055 5.12814545,44.6217129 3.34062857,44.6217129 Z M3.34062857,49.4031621 C2.44687013,49.4031621 1.71974805,48.688166 1.71974805,47.8093125 C1.71974805,46.930459 2.44687013,46.2154629 3.34062857,46.2154629 C4.23438701,46.2154629 4.96150909,46.930459 4.96150909,47.8093125 C4.96150909,48.688166 4.23438701,49.4031621 3.34062857,49.4031621 Z" id="Shape"></path>
            </g>
        </g>
    </g>
</svg>