<?xml version="1.0" encoding="UTF-8"?>
<svg width="55px" height="55px" viewBox="0 0 55 55" version="1.1" xmlns="http://www.w3.org/2000/svg" xmlns:xlink="http://www.w3.org/1999/xlink">
    <!-- Generator: Sketch 46.2 (44496) - http://www.bohemiancoding.com/sketch -->
    <title>Group 11</title>
    <desc>Created with Sketch.</desc>
    <defs></defs>
    <g id="Symbols" stroke="none" stroke-width="1" fill="none" fill-rule="evenodd">
        <g id="Group-11">
            <rect id="Rectangle-5-Copy-2" fill-opacity="0.01" fill="#FFFFFF" x="0" y="0" width="55" height="55"></rect>
            <g id="list-copy" transform="translate(7.000000, 2.000000)" fill-rule="nonzero" fill="#00B5FF">
                <path d="M35.7954545,3.1875 L27.8408097,3.1875 C27.8401136,3.1875 27.839517,3.18759961 27.838821,3.18759961 C27.1124716,2.22049219 25.957571,1.59375 24.6590909,1.59375 L22.6316761,1.59375 C22.070483,0.621761719 21.0279403,0 19.8863636,0 C18.7447869,0 17.7022443,0.621761719 17.1410511,1.59375 L15.1136364,1.59375 C13.8151562,1.59375 12.6602557,2.22049219 11.9339062,3.18759961 C11.9332102,3.18759961 11.9325142,3.1875 11.9318182,3.1875 L3.97727273,3.1875 C1.78420455,3.1875 0,4.97489063 0,7.171875 L0,47.015625 C0,49.2126094 1.78420455,51 3.97727273,51 L35.7954545,51 C37.9885227,51 39.7727273,49.2126094 39.7727273,47.015625 L39.7727273,7.171875 C39.7727273,4.97489063 37.9885227,3.1875 35.7954545,3.1875 Z M12.7272727,5.578125 C12.7272727,4.25999414 13.7978551,3.1875 15.1136364,3.1875 L17.6461648,3.1875 C17.9827415,3.1875 18.2829261,2.97523242 18.3956818,2.65757812 C18.621392,2.02127344 19.2204687,1.59375 19.8863636,1.59375 C20.5522585,1.59375 21.1513352,2.02127344 21.3770455,2.65757812 C21.4898011,2.97523242 21.7899858,3.1875 22.1265625,3.1875 L24.6590909,3.1875 C25.9748722,3.1875 27.0454545,4.25999414 27.0454545,5.578125 L27.0454545,7.96875 L12.7272727,7.96875 L12.7272727,5.578125 Z M38.1818182,47.015625 C38.1818182,48.3337559 37.1112358,49.40625 35.7954545,49.40625 L3.97727273,49.40625 C2.66149148,49.40625 1.59090909,48.3337559 1.59090909,47.015625 L1.59090909,7.171875 C1.59090909,5.85374414 2.66149148,4.78125 3.97727273,4.78125 L11.2164062,4.78125 C11.1640057,5.03883984 11.1363636,5.30529492 11.1363636,5.578125 L11.1363636,8.765625 C11.1363636,9.20569922 11.4925284,9.5625 11.9318182,9.5625 L27.8409091,9.5625 C28.2801989,9.5625 28.6363636,9.20569922 28.6363636,8.765625 L28.6363636,5.578125 C28.6363636,5.30529492 28.6087216,5.03883984 28.556321,4.78125 L35.7954545,4.78125 C37.1112358,4.78125 38.1818182,5.85374414 38.1818182,7.171875 L38.1818182,47.015625 Z" id="Shape"></path>
                <path d="M35.7954545,6.375 L31.0227273,6.375 C30.5834375,6.375 30.2272727,6.73180078 30.2272727,7.171875 C30.2272727,7.61194922 30.5834375,7.96875 31.0227273,7.96875 L35,7.96875 L35,46.21875 L4.77272727,46.21875 L4.77272727,7.96875 L8.75,7.96875 C9.18928977,7.96875 9.54545455,7.61194922 9.54545455,7.171875 C9.54545455,6.73180078 9.18928977,6.375 8.75,6.375 L3.97727273,6.375 C3.53798295,6.375 3.18181818,6.73180078 3.18181818,7.171875 L3.18181818,47.015625 C3.18181818,47.4556992 3.53798295,47.8125 3.97727273,47.8125 L35.7954545,47.8125 C36.2347443,47.8125 36.5909091,47.4556992 36.5909091,47.015625 L36.5909091,7.171875 C36.5909091,6.73180078 36.2347443,6.375 35.7954545,6.375 Z" id="Shape"></path>
                <path d="M19.8863636,3.1875 C19.6765625,3.1875 19.471733,3.27216797 19.3235795,3.42058594 C19.1754261,3.56900391 19.0909091,3.77419922 19.0909091,3.984375 C19.0909091,4.19355469 19.1754261,4.39974609 19.3235795,4.54816406 C19.471733,4.69658203 19.6765625,4.78125 19.8863636,4.78125 C20.0951705,4.78125 20.3009943,4.69658203 20.4491477,4.54816406 C20.5973011,4.39974609 20.6818182,4.19455078 20.6818182,3.984375 C20.6818182,3.77419922 20.5973011,3.56900391 20.4491477,3.42058594 C20.3009943,3.27206836 20.0951705,3.1875 19.8863636,3.1875 Z" id="Shape"></path>
                <path d="M7.39205966,18.5615098 C7.08133523,18.8726895 7.08133523,19.3772109 7.39205966,19.6883906 L9.7784233,22.0790156 C9.9337358,22.2346055 10.1372727,22.3124004 10.3409091,22.3124004 C10.5445455,22.3124004 10.7480824,22.2346055 10.9033949,22.0790156 L14.8806676,18.0946406 C15.191392,17.7834609 15.191392,17.2789395 14.8806676,16.9677598 C14.5700426,16.6565801 14.0664205,16.6565801 13.7557955,16.9677598 L10.3409091,20.3886445 L8.51703125,18.5615098 C8.20640625,18.2503301 7.70268466,18.2503301 7.39205966,18.5615098 Z" id="Shape"></path>
                <path d="M14.8806676,25.7333848 C14.5700426,25.4222051 14.0664205,25.4222051 13.7557955,25.7333848 L10.3409091,29.1542695 L8.51703125,27.3271348 C8.20640625,27.0159551 7.70278409,27.0159551 7.39215909,27.3271348 C7.08143466,27.6383145 7.08143466,28.1428359 7.39215909,28.4540156 L9.77852273,30.8446406 C9.93383523,31.0002305 10.1373722,31.0780254 10.3410085,31.0780254 C10.5446449,31.0780254 10.7481818,31.0002305 10.9034943,30.8446406 L14.880767,26.8602656 C15.1912926,26.5491855 15.1912926,26.0445645 14.8806676,25.7333848 Z" id="Shape"></path>
                <path d="M13.755696,34.4990098 L10.3409091,37.9198945 L8.51703125,36.0927598 C8.20640625,35.7815801 7.70278409,35.7815801 7.39215909,36.0927598 C7.08143466,36.4039395 7.08143466,36.9084609 7.39215909,37.2196406 L9.77852273,39.6102656 C9.93383523,39.7658555 10.1373722,39.8436504 10.3410085,39.8436504 C10.5446449,39.8436504 10.7481818,39.7658555 10.9034943,39.6102656 L14.880767,35.6258906 C15.1914915,35.3147109 15.1914915,34.8101895 14.880767,34.4990098 C14.5700426,34.1878301 14.066321,34.1878301 13.755696,34.4990098 Z" id="Shape"></path>
                <path d="M18.2954545,19.921875 L31.8181818,19.921875 C32.2574716,19.921875 32.6136364,19.5650742 32.6136364,19.125 C32.6136364,18.6849258 32.2574716,18.328125 31.8181818,18.328125 L18.2954545,18.328125 C17.8561648,18.328125 17.5,18.6849258 17.5,19.125 C17.5,19.5650742 17.8561648,19.921875 18.2954545,19.921875 Z" id="Shape"></path>
                <path d="M18.2954545,28.6875 L31.8181818,28.6875 C32.2574716,28.6875 32.6136364,28.3306992 32.6136364,27.890625 C32.6136364,27.4505508 32.2574716,27.09375 31.8181818,27.09375 L18.2954545,27.09375 C17.8561648,27.09375 17.5,27.4505508 17.5,27.890625 C17.5,28.3306992 17.8561648,28.6875 18.2954545,28.6875 Z" id="Shape"></path>
                <path d="M18.2954545,37.453125 L31.8181818,37.453125 C32.2574716,37.453125 32.6136364,37.0963242 32.6136364,36.65625 C32.6136364,36.2161758 32.2574716,35.859375 31.8181818,35.859375 L18.2954545,35.859375 C17.8561648,35.859375 17.5,36.2161758 17.5,36.65625 C17.5,37.0963242 17.8561648,37.453125 18.2954545,37.453125 Z" id="Shape"></path>
            </g>
        </g>
    </g>
</svg>