<?xml version="1.0" encoding="UTF-8"?>
<svg width="55px" height="55px" viewBox="0 0 55 55" version="1.1" xmlns="http://www.w3.org/2000/svg" xmlns:xlink="http://www.w3.org/1999/xlink">
    <!-- Generator: Sketch 46.2 (44496) - http://www.bohemiancoding.com/sketch -->
    <title>Group 18</title>
    <desc>Created with Sketch.</desc>
    <defs></defs>
    <g id="Symbols" stroke="none" stroke-width="1" fill="none" fill-rule="evenodd">
        <g id="Group-18">
            <rect id="Rectangle-5-Copy-7" fill-opacity="0.01" fill="#FFFFFF" x="0" y="0" width="55" height="55"></rect>
            <g id="check-copy" transform="translate(2.000000, 10.000000)" fill-rule="nonzero" fill="#00B5FF">
                <path d="M41.4375,15.2570194 C40.9974258,15.2570194 40.640625,15.6142271 40.640625,16.0548033 L40.640625,33.6060499 C40.640625,34.045928 40.283127,34.4038338 39.84375,34.4038338 L2.390625,34.4038338 C1.95124805,34.4038338 1.59375,34.045928 1.59375,33.6060499 L1.59375,16.0548033 C1.59375,15.6149252 1.95124805,15.2570194 2.390625,15.2570194 L30.2809512,15.2570194 C30.7210254,15.2570194 31.0778262,14.8998116 31.0778262,14.4592355 C31.0778262,14.0186593 30.7210254,13.6614515 30.2809512,13.6614515 L2.390625,13.6614515 C1.07239453,13.6614515 0,14.7350693 0,16.0548033 L0,33.6060499 C0,34.9257839 1.07239453,35.9994017 2.390625,35.9994017 L39.84375,35.9994017 C41.1619805,35.9994017 42.234375,34.9257839 42.234375,33.6060499 L42.234375,16.0548033 C42.234375,15.6141274 41.8775742,15.2570194 41.4375,15.2570194 Z" id="Shape"></path>
                <path d="M50.3000449,0.800576177 C49.8488145,0.348232687 49.2483691,0.0991246537 48.609375,0.0991246537 C47.9703809,0.0991246537 47.3700352,0.348232687 46.9191035,0.800277008 L27.4640977,20.277374 C27.3908848,20.3506704 27.3329121,20.4372299 27.2930684,20.5320665 C27.2451563,20.6439557 26.1445723,23.1797119 25.566041,24.51241 C25.4355527,24.8128753 25.5018926,25.1627036 25.7332852,25.3944598 C25.8858867,25.5472355 26.0897871,25.6282105 26.2970742,25.6282105 C26.4040547,25.6282105 26.5120313,25.6066704 26.6143301,25.5621939 C30.6732129,23.7976953 30.6732129,23.7976953 30.7428398,23.748133 C30.7791973,23.7223047 30.8132637,23.6934848 30.8447402,23.6618726 L50.2997461,4.1846759 C51.2316914,3.25156787 51.2316914,1.73328532 50.3000449,0.800576177 Z M48.609375,1.69469252 C48.8222402,1.69469252 49.0222559,1.77766205 49.1727656,1.92844321 C49.4834473,2.23947922 49.4834473,2.74547368 49.1727656,3.0565097 L48.9393809,3.29016066 L47.8125996,2.16209418 L48.0463828,1.92804432 C48.1964941,1.77756233 48.3965098,1.69469252 48.609375,1.69469252 Z M29.8246406,22.4266039 C29.5106719,22.5632244 28.6952695,22.9178393 27.8331504,23.2926981 C28.3483301,22.1054958 28.5844043,21.56041 28.6948711,21.3017285 L46.6856191,3.29036011 L47.8124004,4.41842659 L29.8246406,22.4266039 Z" id="Shape"></path>
                <path d="M13.546875,31.2126981 C13.546875,31.6532742 13.9036758,32.010482 14.34375,32.010482 L36.65625,32.010482 C37.0963242,32.010482 37.453125,31.6532742 37.453125,31.2126981 C37.453125,30.7721219 37.0963242,30.4149141 36.65625,30.4149141 L14.34375,30.4149141 C13.9036758,30.4149141 13.546875,30.7720222 13.546875,31.2126981 Z" id="Shape"></path>
                <path d="M33.46875,28.8193463 L36.65625,28.8193463 C37.0963242,28.8193463 37.453125,28.4621385 37.453125,28.0215623 C37.453125,27.5809861 37.0963242,27.2237784 36.65625,27.2237784 L33.46875,27.2237784 C33.0286758,27.2237784 32.671875,27.5809861 32.671875,28.0215623 C32.671875,28.4621385 33.0286758,28.8193463 33.46875,28.8193463 Z" id="Shape"></path>
                <path d="M30.28125,27.2237784 L18.328125,27.2237784 C17.8880508,27.2237784 17.53125,27.5809861 17.53125,28.0215623 C17.53125,28.4621385 17.8880508,28.8193463 18.328125,28.8193463 L30.28125,28.8193463 C30.7213242,28.8193463 31.078125,28.4621385 31.078125,28.0215623 C31.078125,27.5809861 30.7213242,27.2237784 30.28125,27.2237784 Z" id="Shape"></path>
                <path d="M33.46875,25.6282105 L36.65625,25.6282105 C37.0963242,25.6282105 37.453125,25.2710028 37.453125,24.8304266 C37.453125,24.3898504 37.0963242,24.0326427 36.65625,24.0326427 L33.46875,24.0326427 C33.0286758,24.0326427 32.671875,24.3898504 32.671875,24.8304266 C32.671875,25.2710028 33.0286758,25.6282105 33.46875,25.6282105 Z" id="Shape"></path>
                <path d="M18.328125,25.6282105 L22.3125,25.6282105 C22.7525742,25.6282105 23.109375,25.2710028 23.109375,24.8304266 C23.109375,24.3898504 22.7525742,24.0326427 22.3125,24.0326427 L18.328125,24.0326427 C17.8880508,24.0326427 17.53125,24.3898504 17.53125,24.8304266 C17.53125,25.2710028 17.8880508,25.6282105 18.328125,25.6282105 Z" id="Shape"></path>
                <path d="M26.296875,18.4481551 C26.296875,18.0075789 25.9400742,17.6503712 25.5,17.6503712 L5,17.6503712 C4.55992578,17.6503712 4.203125,18.0075789 4.203125,18.4481551 C4.203125,18.8887313 4.55992578,19.2459391 5,19.2459391 L25.5,19.2459391 C25.9400742,19.2459391 26.296875,18.8887313 26.296875,18.4481551 Z" id="Shape"></path>
            </g>
        </g>
    </g>
</svg>