<?xml version="1.0" encoding="UTF-8"?>
<svg width="55px" height="55px" viewBox="0 0 55 55" version="1.1" xmlns="http://www.w3.org/2000/svg" xmlns:xlink="http://www.w3.org/1999/xlink">
    <!-- Generator: Sketch 46.2 (44496) - http://www.bohemiancoding.com/sketch -->
    <title>Group 19</title>
    <desc>Created with Sketch.</desc>
    <defs></defs>
    <g id="Symbols" stroke="none" stroke-width="1" fill="none" fill-rule="evenodd">
        <g id="Group-19">
            <rect id="Rectangle-5-Copy-8" fill-opacity="0.01" fill="#FFFFFF" x="0" y="0" width="55" height="55"></rect>
            <g id="document-with-tables-copy" transform="translate(7.000000, 2.000000)" fill-rule="nonzero" fill="#00B5FF">
                <path d="M39.996,11.077459 C39.9949,11.0661035 39.9927,11.0550469 39.9911,11.043791 C39.989,11.0293477 39.9873,11.0148047 39.9845,11.0004609 C39.9819,10.9873125 39.9782,10.9744629 39.975,10.9615137 C39.9719,10.9492617 39.9692,10.9370098 39.9655,10.9248574 C39.9616,10.9121074 39.9568,10.8997559 39.9523,10.8872051 C39.948,10.8751523 39.944,10.8630996 39.9391,10.8512461 C39.9342,10.8394922 39.9284,10.8281367 39.923,10.8166816 C39.9173,10.8046289 39.9119,10.7924766 39.9056,10.7807227 C39.8995,10.7693672 39.8926,10.7586094 39.886,10.7476523 C39.8792,10.7363965 39.8728,10.7249414 39.8655,10.7139844 C39.8572,10.7016328 39.848,10.6899785 39.839,10.6780254 C39.8323,10.6691602 39.8261,10.6599961 39.8189,10.6513301 C39.802,10.6308105 39.7842,10.6111875 39.7654,10.5924609 L29.3661,0.233783203 C29.3407,0.208482422 29.3131,0.185472656 29.2844,0.163757813 C29.2782,0.159076172 29.272,0.154294922 29.2657,0.1498125 C29.2372,0.129392578 29.2076,0.110367188 29.1764,0.0938320312 C29.1744,0.0927363281 29.1723,0.0919394531 29.1703,0.0909433594 C29.1407,0.0755039062 29.1099,0.0623554687 29.0784,0.0506015625 C29.0722,0.0483105469 29.0662,0.0460195312 29.06,0.043828125 C29.0264,0.0323730469 28.9922,0.0225117187 28.9567,0.0154394531 C28.9559,0.0152402344 28.955,0.0152402344 28.9542,0.0150410156 C28.9216,0.00866601562 28.8882,0.00488085937 28.8543,0.00268945312 C28.8453,0.00209179687 28.8363,0.00159375 28.8272,0.00129492187 C28.8181,0.00109570312 28.8092,0 28.8,0 L2.4,0 C1.0766,0 0,1.07239453 0,2.390625 L0,48.609375 C0,49.9275059 1.0766,51 2.4,51 L37.6,51 C38.9234,51 40,49.9275059 40,48.609375 L40,11.1565488 C40,11.1301523 39.9986,11.1037559 39.996,11.077459 Z M37.6,49.40625 L2.4,49.40625 C1.9589,49.40625 1.6,49.048752 1.6,48.609375 L1.6,2.390625 C1.6,1.95124805 1.9589,1.59375 2.4,1.59375 L28,1.59375 L28,9.5625 C28,10.8806309 29.0767,11.953125 30.4,11.953125 L35.1999,11.953125 C35.6417,11.953125 35.9999,11.5963242 35.9999,11.15625 C35.9999,10.7161758 35.6417,10.359375 35.1999,10.359375 L30.4,10.359375 C29.9589,10.359375 29.6,10.001877 29.6,9.5625 L29.6,2.72073047 L38.4,11.4863555 L38.4,48.609375 C38.4,49.048752 38.0411,49.40625 37.6,49.40625 Z" id="Shape"></path>
                <path d="M33.6,16.734375 L12.7942,16.734375 C12.7928,16.734375 12.7914,16.734375 12.79,16.734375 L6.4,16.734375 C5.5178,16.734375 4.8,17.4493711 4.8,18.328125 L4.8,21.5209043 C4.8,21.5225977 4.8,21.5241914 4.8,21.5258848 L4.8,25.5052793 C4.8,25.5069727 4.8,25.5085664 4.8,25.5102598 L4.8,29.4896543 C4.8,29.4913477 4.8,29.4929414 4.8,29.4946348 L4.8,33.4740293 C4.8,33.4757227 4.8,33.4773164 4.8,33.4790098 L4.8,37.4584043 C4.8,37.4600977 4.8,37.4616914 4.8,37.4633848 L4.8,41.4427793 C4.8,41.4444727 4.8,41.4460664 4.8,41.4477598 L4.8,44.625 C4.8,45.5037539 5.5178,46.21875 6.4,46.21875 L33.6,46.21875 C34.4822,46.21875 35.2,45.5037539 35.2,44.625 L35.2,18.328125 C35.2,17.4493711 34.4822,16.734375 33.6,16.734375 Z M12,40.640625 L8.6873,40.640625 L12,38.8074141 L12,40.640625 Z M12,32.671875 L8.6873,32.671875 L12,30.8386641 L12,32.671875 Z M12,28.6875 L8.6873,28.6875 L12,26.8542891 L12,28.6875 Z M12,24.703125 L8.6873,24.703125 L12,22.8699141 L12,24.703125 Z M6.4,26.296875 L9.7127,26.296875 L6.4,28.1300859 L6.4,26.296875 Z M6.4,30.28125 L9.7127,30.28125 L6.4,32.1144609 L6.4,30.28125 Z M6.4,34.265625 L9.7127,34.265625 L6.4,36.0988359 L6.4,34.265625 Z M6.4,38.25 L9.7127,38.25 L6.4,40.0832109 L6.4,38.25 Z M12,36.65625 L8.6873,36.65625 L12,34.8230391 L12,36.65625 Z M13.6,32.671875 L13.6,30.28125 L19.2,30.28125 L19.2,32.671875 L13.6,32.671875 Z M20.8,30.28125 L26.4,30.28125 L26.4,32.671875 L20.8,32.671875 L20.8,30.28125 Z M20.8,28.6875 L20.8,26.296875 L26.4,26.296875 L26.4,28.6875 L20.8,28.6875 Z M19.2,28.6875 L13.6,28.6875 L13.6,26.296875 L19.2,26.296875 L19.2,28.6875 Z M13.6,24.703125 L13.6,22.3125 L19.2,22.3125 L19.2,24.703125 L13.6,24.703125 Z M6.4,24.1457109 L6.4,22.3125 L9.7127,22.3125 L6.4,24.1457109 Z M9.7127,42.234375 L6.4,44.0675859 L6.4,42.234375 L9.7127,42.234375 Z M13.6,40.640625 L13.6,38.25 L19.2,38.25 L19.2,40.640625 L13.6,40.640625 Z M13.6,36.65625 L13.6,34.265625 L19.2,34.265625 L19.2,36.65625 L13.6,36.65625 Z M20.8,34.265625 L26.4,34.265625 L26.4,36.65625 L20.8,36.65625 L20.8,34.265625 Z M28,34.265625 L33.6,34.265625 L33.6,36.65625 L28,36.65625 L28,34.265625 Z M28,32.671875 L28,30.28125 L33.6,30.28125 L33.6,32.671875 L28,32.671875 Z M28,28.6875 L28,26.296875 L33.6,26.296875 L33.6,28.6875 L28,28.6875 Z M28,24.703125 L28,22.3125 L33.6,22.3125 L33.6,24.703125 L28,24.703125 Z M26.4,24.703125 L20.8,24.703125 L20.8,22.3125 L26.4,22.3125 L26.4,24.703125 Z M20.8,20.71875 L20.8,18.328125 L26.4,18.328125 L26.4,20.71875 L20.8,20.71875 Z M19.2,20.71875 L13.6,20.71875 L13.6,18.328125 L19.2,18.328125 L19.2,20.71875 Z M12,20.71875 L8.6873,20.71875 L12,18.8855391 L12,20.71875 Z M12,42.7917891 L12,44.625 L8.6873,44.625 L12,42.7917891 Z M13.6,42.234375 L19.2,42.234375 L19.2,44.625 L13.6,44.625 L13.6,42.234375 Z M20.8,42.234375 L26.4,42.234375 L26.4,44.625 L20.8,44.625 L20.8,42.234375 Z M20.8,40.640625 L20.8,38.25 L26.4,38.25 L26.4,40.640625 L20.8,40.640625 Z M28,38.25 L33.6,38.25 L33.6,40.640625 L28,40.640625 L28,38.25 Z M33.6,20.71875 L28,20.71875 L28,18.328125 L33.6,18.328125 L33.6,20.71875 Z M9.7127,18.328125 L6.4,20.1613359 L6.4,18.328125 L9.7127,18.328125 Z M28,44.625 L28,42.234375 L33.6,42.234375 L33.6,44.625 L28,44.625 Z" id="Shape"></path>
            </g>
        </g>
    </g>
</svg>