<?xml version="1.0" encoding="UTF-8"?>
<svg width="55px" height="55px" viewBox="0 0 55 55" version="1.1" xmlns="http://www.w3.org/2000/svg" xmlns:xlink="http://www.w3.org/1999/xlink">
    <!-- Generator: Sketch 46.2 (44496) - http://www.bohemiancoding.com/sketch -->
    <title>Group 14</title>
    <desc>Created with Sketch.</desc>
    <defs></defs>
    <g id="Symbols" stroke="none" stroke-width="1" fill="none" fill-rule="evenodd">
        <g id="Group-14">
            <rect id="Rectangle-5-Copy-4" fill-opacity="0.01" fill="#FFFFFF" x="0" y="0" width="55" height="55"></rect>
            <g id="insurance-copy" transform="translate(4.000000, 4.000000)" fill-rule="nonzero" fill="#00B5FF">
                <path d="M14.6687527,7.30309438 C14.3995438,6.86498398 13.8265617,6.72788518 13.3883622,6.99682689 C9.78620033,9.20858063 6.96520767,12.5909746 5.44536191,16.5211402 C5.2599801,17.0006742 5.4984554,17.5396266 5.97790032,17.7250975 C6.08818513,17.7678574 6.20167692,17.7879901 6.31338706,17.7879901 C6.68673408,17.7879901 7.03905751,17.5618083 7.18176854,17.1926482 C8.55533995,13.640551 11.1056983,10.5829538 14.3624852,8.58339585 C14.8005956,8.31445415 14.9377835,7.74129386 14.6687527,7.30309438 Z" id="Shape"></path>
                <path d="M17.0722132,6.14848909 C16.8462095,5.69639265 16.301734,5.50851652 15.8464305,5.72106865 C15.838324,5.72489923 15.8302174,5.72881888 15.8223781,5.73273853 C15.3624424,5.96266186 15.1760806,6.52183611 15.406004,6.98159369 C15.569115,7.30781578 15.8977424,7.4963155 16.2392867,7.4963155 C16.3711296,7.4963155 16.5047542,7.46825434 16.6316085,7.40901412 C16.6398041,7.40518355 16.6479106,7.40126389 16.655839,7.39734424 C17.1157748,7.16750999 17.3021365,6.60833574 17.0722132,6.14848909 Z" id="Shape"></path>
                <path d="M39.6237632,7.3723119 C35.3167763,3.06621587 29.5905184,0.69473623 23.5000891,0.69473623 L23.5,0.69473623 C17.4094816,0.69473623 11.6832237,3.06621587 7.37623682,7.37240099 C3.06916087,11.6784079 0.696344988,17.4039532 0.694919659,23.4942934 C0.694830576,23.853209 0.901146899,24.1803219 1.22514192,24.3347028 C1.54922602,24.4890837 1.93317393,24.4434732 2.21200385,24.2174695 C4.11463944,22.6749076 6.51355665,21.8254117 8.96681452,21.8254117 C11.4236357,21.8254117 13.7356079,22.633484 15.6531203,24.1622381 C15.9927049,24.4329614 16.4741096,24.4329614 16.8137833,24.1622381 C18.4871191,22.8280414 20.4610211,22.0431307 22.5692604,21.8647864 L22.5692604,33.0874679 L21.5956718,33.0874679 C21.0816627,33.0874679 20.6648431,33.5041984 20.6648431,34.0182966 L20.6648431,40.347914 C20.6648431,40.5532504 20.4978124,40.7202811 20.292476,40.7202811 C20.0871396,40.7202811 19.9201089,40.5532504 19.9201089,40.347914 L19.9201089,38.3931648 C19.9201089,37.8790666 19.5032894,37.4623361 18.9892802,37.4623361 L15.2660545,37.4623361 C14.7520454,37.4623361 14.3352258,37.8790666 14.3352258,38.3931648 L14.3352258,40.347914 C14.3352258,43.632762 17.007628,46.3051642 20.292476,46.3051642 C23.5773241,46.3051642 26.2497262,43.632762 26.2497262,40.347914 L26.2497262,34.0182966 C26.2497262,33.5041984 25.8329067,33.0874679 25.3188975,33.0874679 L24.4307396,33.0874679 L24.4307396,21.8647864 C26.5389789,22.0431307 28.5128809,22.8281304 30.1862167,24.1622381 C30.5258013,24.4329614 31.007206,24.4329614 31.3468797,24.1622381 C33.2643921,22.633484 35.5763643,21.8254117 38.0331855,21.8254117 C40.4864433,21.8254117 42.8853606,22.6749076 44.7879962,24.2174695 C44.9570758,24.3545683 45.1648174,24.4252112 45.3744298,24.4252112 C45.5104596,24.4252112 45.6473802,24.3954575 45.7748581,24.3346137 C46.098764,24.1800547 46.3051694,23.8531199 46.3050803,23.4942043 C46.303655,17.4038641 43.9309282,11.6784079 39.6237632,7.3723119 Z M15.3332231,21.6883129 C13.4127709,20.5562456 11.2428862,19.9636653 8.96672544,19.9636653 C6.73795683,19.9637543 4.54740485,20.5613234 2.63550463,21.6712981 C3.45970092,12.1935752 10.6248281,4.5032144 19.8527621,2.87548907 C18.9655841,4.04452582 18.1685582,5.67260748 17.4826187,7.73906678 C16.2242317,11.5303519 15.4737962,16.4289393 15.3332231,21.6883129 Z M24.3881579,40.348003 C24.3881579,42.6063472 22.5509093,44.4435959 20.2925651,44.4435959 C18.0342209,44.4435959 16.1969723,42.6063472 16.1969723,40.348003 L16.1969723,39.3240826 L18.0586297,39.3240826 L18.0586297,40.348003 C18.0586297,41.5797542 19.0608139,42.5820275 20.2925651,42.5820275 C21.5243163,42.5820275 22.5265896,41.5798433 22.5265896,40.348003 L22.5265896,34.9492144 L24.388247,34.9492144 L24.388247,40.348003 L24.3881579,40.348003 Z M23.4999109,19.9637543 C21.2485152,19.9637543 19.1015248,20.5441304 17.196484,21.6521452 C17.3373243,16.6059473 18.0534629,11.9287313 19.2494027,8.32550044 C20.4484604,4.71309405 22.0376128,2.55630454 23.4999109,2.55630454 L23.5,2.55630454 C24.9623872,2.55630454 26.5514505,4.71300496 27.7504191,8.32550044 C28.946448,11.9286422 29.6624975,16.6059473 29.8034269,21.6521452 C27.8984752,20.5441304 25.7513957,19.9637543 23.4999109,19.9637543 Z M38.0331855,19.9637543 C35.7569356,19.9637543 33.5872291,20.5563347 31.6666878,21.688402 C31.5261147,16.4290284 30.7756792,11.5305301 29.5172922,7.73915587 C28.8313528,5.67269656 28.0344159,4.04461491 27.1472379,2.87557816 C36.3750828,4.50339257 43.5402991,12.1936643 44.3643172,21.6712981 C42.4525061,20.5613234 40.2619541,19.9637543 38.0331855,19.9637543 Z" id="Shape"></path>
            </g>
        </g>
    </g>
</svg>