<?xml version="1.0" encoding="UTF-8"?>
<svg width="55px" height="55px" viewBox="0 0 55 55" version="1.1" xmlns="http://www.w3.org/2000/svg" xmlns:xlink="http://www.w3.org/1999/xlink">
    <!-- Generator: Sketch 46.2 (44496) - http://www.bohemiancoding.com/sketch -->
    <title>Group 17</title>
    <desc>Created with Sketch.</desc>
    <defs></defs>
    <g id="Symbols" stroke="none" stroke-width="1" fill="none" fill-rule="evenodd">
        <g id="Group-17">
            <rect id="Rectangle-5-Copy-6" fill-opacity="0.01" fill="#FFFFFF" x="0" y="0" width="55" height="55"></rect>
            <g id="diagram-copy" transform="translate(4.000000, 2.000000)" fill-rule="nonzero" fill="#00B5FF">
                <path d="M41.873827,19.9571367 L23.0762068,27.5105156 L23.0762068,7.171875 C23.0762068,6.73180078 22.7210295,6.375 22.2829578,6.375 C16.3501498,6.375 10.772519,8.69589844 6.57742194,12.9101719 C2.38242405,17.1244453 0.0719873418,22.7275723 0.0719873418,28.6875 C0.0719873418,34.6474277 2.38232489,40.2505547 6.57742194,44.4648281 C10.772519,48.6791016 16.3502489,51 22.2829578,51 C28.2156667,51 33.7933966,48.6791016 37.9884937,44.4648281 C42.1835907,40.2505547 44.4939283,34.6474277 44.4939283,28.6875 C44.4939283,25.8342891 43.9592785,23.0462227 42.9048523,20.4007969 C42.7421371,19.9921992 42.2806646,19.7939766 41.873827,19.9571367 Z M21.4897089,26.3267578 L10.4286456,11.7426504 C13.5824051,9.50950781 17.3841498,8.14067578 21.4897089,7.98379102 L21.4897089,26.3267578 Z M22.2829578,49.40625 C10.9106435,49.40625 1.65848523,40.1117988 1.65848523,28.6875 C1.65848523,22.2633926 4.58468143,16.5133418 9.16777637,12.7100566 L21.6519283,29.1704062 C21.6584726,29.1790723 21.6660084,29.186543 21.6728502,29.1948105 C21.6826667,29.2066641 21.692384,29.2185176 21.7027954,29.229873 C21.7150907,29.2432207 21.727981,29.2555723 21.7409705,29.2678242 C21.7506878,29.2769883 21.7602068,29.286252 21.7703207,29.294918 C21.7858882,29.308166 21.8020506,29.3202187 21.8184114,29.3321719 C21.825154,29.3370527 21.8312025,29.3427305 21.8380443,29.3474121 C21.8405232,29.3491055 21.8432004,29.3503008 21.8456793,29.3518945 C21.8640232,29.3640469 21.882962,29.3748047 21.9020992,29.3853633 C21.9107257,29.3901445 21.919154,29.3954238 21.9278797,29.3998066 C21.947711,29.4097676 21.9681371,29.4181348 21.9886624,29.4264023 C21.9974873,29.4299883 22.0060148,29.4341719 22.0148397,29.4373594 C22.0367532,29.4452285 22.0590633,29.4514043 22.0815717,29.4572812 C22.0894051,29.459373 22.0970401,29.4622617 22.1049726,29.4640547 C22.1347194,29.4709277 22.1647637,29.4760078 22.1951055,29.4793945 C22.2072025,29.4807891 22.2193987,29.4806895 22.2315949,29.4814863 C22.2488481,29.482582 22.2660021,29.484375 22.2832553,29.484375 C22.2845443,29.484375 22.2857342,29.4840762 22.2870232,29.4840762 C22.3248017,29.483877 22.3626793,29.4806895 22.4002595,29.4750117 C22.4106709,29.473418 22.4207848,29.4708281 22.4311962,29.4688359 C22.458365,29.4636562 22.4852363,29.4571816 22.5119093,29.4490137 C22.5249979,29.4450293 22.5378882,29.4407461 22.5508776,29.4360645 C22.5596034,29.432877 22.5685274,29.4307852 22.5772532,29.4272988 L41.7125,21.738252 C42.5055506,23.9707969 42.9071329,26.3046445 42.9071329,28.6875 C42.9074304,40.1117988 33.6553713,49.40625 22.2829578,49.40625 Z" id="Shape"></path>
                <path d="M46.871097,14.0257969 C45.2399789,9.93344531 42.462616,6.44293359 38.8392532,3.93178125 C38.6709852,3.81513867 38.5009325,3.70188281 38.3300865,3.59032031 C38.3225506,3.58514062 38.3149156,3.58035937 38.3072806,3.57547852 C34.7149536,1.23475781 30.5601139,0 26.2492025,0 C25.8111308,0 25.4559536,0.356800781 25.4559536,0.796875 L25.4559536,3.98417578 L25.4559536,3.98467383 L25.4559536,7.96855078 L25.4559536,7.96904883 L25.4559536,11.9529258 L25.4559536,11.9534238 L25.4559536,15.9373008 L25.4559536,15.9377988 L25.4559536,19.9216758 L25.4559536,19.9221738 L25.4559536,22.3125 C25.4559536,22.5768633 25.5865422,22.8241934 25.8044873,22.9724121 C25.937654,23.062957 26.0929325,23.109375 26.2492025,23.109375 C26.3487553,23.109375 26.4487046,23.0906484 26.5437954,23.0523984 L28.7711392,22.1574082 C28.7750063,22.1574082 28.7788734,22.1580059 28.7828397,22.1580059 C28.9835316,22.1580059 29.1841245,22.0816055 29.3384114,21.929502 L35.7975401,19.3340801 C35.8004156,19.3329844 35.803192,19.3317891 35.8060675,19.3305937 L42.4087743,16.677498 C42.4110549,16.676502 42.4134346,16.6756055 42.4157152,16.674709 L46.4293565,15.0619336 C46.6246941,14.9834414 46.7810633,14.8301426 46.8638586,14.6359043 C46.9467532,14.4413672 46.9493312,14.2219277 46.871097,14.0257969 Z M38.7975084,16.4119395 L43.7826814,11.4039785 C44.0037004,11.7626719 44.2132173,12.1290352 44.4126203,12.5016738 L41.6684747,15.2583633 L38.7975084,16.4119395 Z M32.1870675,19.0682227 L42.1236013,9.08626758 C42.3849768,9.40262695 42.635346,9.72795117 42.8773861,10.0593516 L35.0580338,17.9145469 L32.1870675,19.0682227 Z M38.9741055,6.01182422 L27.0424515,17.9980195 L27.0424515,16.2676055 L37.9839325,5.27620898 C38.3222532,5.51208398 38.6519473,5.75791992 38.9741055,6.01182422 Z M27.0424515,4.31448047 L29.4962679,1.84944727 C29.980943,1.9263457 30.4617511,2.02047656 30.9378987,2.13164063 L27.0424515,6.04489453 L27.0424515,4.31448047 Z M27.0424515,8.29885547 L32.6910781,2.6244082 C33.1163586,2.76475781 33.5367806,2.91955078 33.9522447,3.08789062 L27.0424515,10.0292695 L27.0424515,8.29885547 Z M27.0424515,12.2832305 L35.4972954,3.78973828 C35.8747827,3.98068945 36.2471139,4.18369336 36.6137932,4.39865039 L27.0425506,14.0136445 L27.0425506,12.2832305 L27.0424515,12.2832305 Z M27.4711034,1.63000781 L27.0425506,2.06051953 L27.0425506,1.60879102 C27.1856329,1.61426953 27.3284177,1.62164063 27.4711034,1.63000781 Z M27.0424515,20.2519805 L40.1888671,7.0454707 C40.4887152,7.32158789 40.7787468,7.60716797 41.0610443,7.8997207 L28.4475928,20.5708301 L27.0424515,21.135416 L27.0424515,20.2519805 Z" id="Shape"></path>
            </g>
        </g>
    </g>
</svg>