<?xml version="1.0" encoding="UTF-8"?>
<svg width="55px" height="55px" viewBox="0 0 55 55" version="1.1" xmlns="http://www.w3.org/2000/svg" xmlns:xlink="http://www.w3.org/1999/xlink">
    <!-- Generator: Sketch 46.2 (44496) - http://www.bohemiancoding.com/sketch -->
    <title>Group 16</title>
    <desc>Created with Sketch.</desc>
    <defs></defs>
    <g id="Symbols" stroke="none" stroke-width="1" fill="none" fill-rule="evenodd">
        <g id="Group-16">
            <rect id="Rectangle-5-Copy-5" fill-opacity="0.01" fill="#FFFFFF" x="0" y="0" width="55" height="55"></rect>
            <g id="invoice-copy" transform="translate(9.000000, 8.000000)" fill-rule="nonzero" fill="#00B5FF">
                <path d="M36.9435165,0 L1.03142857,0 C0.48021978,0 0.0292307692,0.449040512 0.0292307692,0.997867804 C0.0292307692,1.5466951 0.48021978,1.99573561 1.03142857,1.99573561 L3.19450549,1.99573561 L3.19450549,37.9522388 C3.19450549,38.3181237 3.39494505,38.6590618 3.72065934,38.8336887 C4.04637363,39.0083156 4.4389011,38.9916844 4.74791209,38.7837953 L9.09912088,35.8982942 L13.467033,38.7921109 C13.8010989,39.0166311 14.2437363,39.0166311 14.5778022,38.7921109 L18.929011,35.9066098 L23.2969231,38.8004264 C23.630989,39.0249467 24.0736264,39.0249467 24.4076923,38.8004264 L28.7589011,35.9149254 L33.1268132,38.808742 C33.2938462,38.9168443 33.4859341,38.9750533 33.678022,38.9750533 C33.8367033,38.9750533 34.0037363,38.9334755 34.1540659,38.8586354 C34.4797802,38.6840085 34.6802198,38.3430704 34.6802198,37.9771855 L34.6635165,2.0206823 L36.9435165,2.0206823 C37.4947253,2.0206823 37.9457143,1.57164179 37.9457143,1.0228145 C37.9457143,0.473987207 37.4947253,0 36.9435165,0 Z M32.6841758,36.0895522 L29.3184615,33.8609808 C28.9843956,33.6364606 28.5417582,33.6364606 28.2076923,33.8609808 L23.8564835,36.7547974 L19.4885714,33.8609808 C19.1545055,33.6364606 18.7118681,33.6364606 18.3778022,33.8609808 L14.0265934,36.7464819 L9.65868132,33.8609808 C9.32461538,33.6364606 8.88197802,33.6364606 8.54791209,33.8609808 L5.1989011,36.0812367 L5.1989011,1.98742004 L32.6758242,1.98742004 L32.6841758,36.0895522 Z" id="Shape"></path>
                <path d="M9.96192385,7.99573561 L20.0380762,7.99573561 C20.5671343,7.99573561 21,7.5466951 21,6.9978678 C21,6.44904051 20.5671343,6 20.0380762,6 L9.96192385,6 C9.43286573,6 9,6.44904051 9,6.9978678 C9,7.5466951 9.4248497,7.99573561 9.96192385,7.99573561 Z" id="Shape"></path>
                <path d="M10.0152284,10.9957356 L17.9847716,10.9957356 C18.5431472,10.9957356 19,10.5466951 19,9.9978678 C19,9.44904051 18.5431472,9 17.9847716,9 L10.0152284,9 C9.45685279,9 9,9.44904051 9,9.9978678 C9,10.5466951 9.44839255,10.9957356 10.0152284,10.9957356 Z" id="Shape"></path>
                <path d="M25.0021978,7.99573561 L27.6246154,7.99573561 C28.1758242,7.99573561 28.6268132,7.5466951 28.6268132,6.9978678 C28.6268132,6.44904051 28.1758242,6 27.6246154,6 L25.0021978,6 C24.450989,6 24,6.44904051 24,6.9978678 C24,7.5466951 24.4426374,7.99573561 25.0021978,7.99573561 Z" id="Shape"></path>
                <path d="M25.0021978,10.9957356 L27.6246154,10.9957356 C28.1758242,10.9957356 28.6268132,10.5466951 28.6268132,9.9978678 C28.6268132,9.44904051 28.1758242,9 27.6246154,9 L25.0021978,9 C24.450989,9 24,9.44904051 24,9.9978678 C24,10.5466951 24.4426374,10.9957356 25.0021978,10.9957356 Z" id="Shape"></path>
                <path d="M9.96192385,16.9957356 L20.0380762,16.9957356 C20.5671343,16.9957356 21,16.5466951 21,15.9978678 C21,15.4490405 20.5671343,15 20.0380762,15 L9.96192385,15 C9.43286573,15 9,15.4490405 9,15.9978678 C9,16.5466951 9.4248497,16.9957356 9.96192385,16.9957356 Z" id="Shape"></path>
                <path d="M10.0152284,19.9957356 L17.9847716,19.9957356 C18.5431472,19.9957356 19,19.5466951 19,18.9978678 C19,18.4490405 18.5431472,18 17.9847716,18 L10.0152284,18 C9.45685279,18 9,18.4490405 9,18.9978678 C9,19.5466951 9.44839255,19.9957356 10.0152284,19.9957356 Z" id="Shape"></path>
                <path d="M25.0021978,16.9957356 L27.6246154,16.9957356 C28.1758242,16.9957356 28.6268132,16.5466951 28.6268132,15.9978678 C28.6268132,15.4490405 28.1758242,15 27.6246154,15 L25.0021978,15 C24.450989,15 24,15.4490405 24,15.9978678 C24,16.5466951 24.4426374,16.9957356 25.0021978,16.9957356 Z" id="Shape"></path>
                <path d="M25.0021978,19.9957356 L27.6246154,19.9957356 C28.1758242,19.9957356 28.6268132,19.5466951 28.6268132,18.9978678 C28.6268132,18.4490405 28.1758242,18 27.6246154,18 L25.0021978,18 C24.450989,18 24,18.4490405 24,18.9978678 C24,19.5466951 24.4426374,19.9957356 25.0021978,19.9957356 Z" id="Shape"></path>
                <path d="M9.96192385,25.9957356 L20.0380762,25.9957356 C20.5671343,25.9957356 21,25.5466951 21,24.9978678 C21,24.4490405 20.5671343,24 20.0380762,24 L9.96192385,24 C9.43286573,24 9,24.4490405 9,24.9978678 C9,25.5466951 9.4248497,25.9957356 9.96192385,25.9957356 Z" id="Shape"></path>
                <path d="M10.0152284,28.9957356 L17.9847716,28.9957356 C18.5431472,28.9957356 19,28.5466951 19,27.9978678 C19,27.4490405 18.5431472,27 17.9847716,27 L10.0152284,27 C9.45685279,27 9,27.4490405 9,27.9978678 C9,28.5466951 9.44839255,28.9957356 10.0152284,28.9957356 Z" id="Shape"></path>
                <path d="M25.0021978,25.9957356 L27.6246154,25.9957356 C28.1758242,25.9957356 28.6268132,25.5466951 28.6268132,24.9978678 C28.6268132,24.4490405 28.1758242,24 27.6246154,24 L25.0021978,24 C24.450989,24 24,24.4490405 24,24.9978678 C24,25.5466951 24.4426374,25.9957356 25.0021978,25.9957356 Z" id="Shape"></path>
                <path d="M25.0021978,28.9957356 L27.6246154,28.9957356 C28.1758242,28.9957356 28.6268132,28.5466951 28.6268132,27.9978678 C28.6268132,27.4490405 28.1758242,27 27.6246154,27 L25.0021978,27 C24.450989,27 24,27.4490405 24,27.9978678 C24,28.5466951 24.4426374,28.9957356 25.0021978,28.9957356 Z" id="Shape"></path>
            </g>
        </g>
    </g>
</svg>