<?xml version="1.0" encoding="UTF-8"?>
<svg width="55px" height="55px" viewBox="0 0 55 55" version="1.1" xmlns="http://www.w3.org/2000/svg" xmlns:xlink="http://www.w3.org/1999/xlink">
    <!-- Generator: Sketch 46.2 (44496) - http://www.bohemiancoding.com/sketch -->
    <title>Group 5</title>
    <desc>Created with Sketch.</desc>
    <defs></defs>
    <g id="Symbols" stroke="none" stroke-width="1" fill="none" fill-rule="evenodd">
        <g id="Group-5">
            <rect id="Rectangle-5-Copy" fill-opacity="0.01" fill="#FFFFFF" x="0" y="0" width="55" height="55"></rect>
            <g id="list-(1)-copy" transform="translate(8.000000, 2.000000)" fill-rule="nonzero" fill="#00B5FF">
                <path d="M34.7076923,0 L3.69230769,0 C1.65636923,0 0,1.78739063 0,3.984375 L0,47.015625 C0,49.2126094 1.65636923,51 3.69230769,51 L34.7076923,51 C36.7436308,51 38.4,49.2126094 38.4,47.015625 L38.4,3.984375 C38.4,1.78739063 36.7436308,0 34.7076923,0 Z M36.9230769,47.015625 C36.9230769,48.3337559 35.9292923,49.40625 34.7076923,49.40625 L3.69230769,49.40625 C2.47070769,49.40625 1.47692308,48.3337559 1.47692308,47.015625 L1.47692308,3.984375 C1.47692308,2.66624414 2.47070769,1.59375 3.69230769,1.59375 L34.7076923,1.59375 C35.9292923,1.59375 36.9230769,2.66624414 36.9230769,3.984375 L36.9230769,47.015625 Z" id="Shape"></path>
                <path d="M14.7692308,10.359375 L28.0615385,10.359375 C28.4693538,10.359375 28.8,10.0025742 28.8,9.5625 C28.8,9.12242578 28.4693538,8.765625 28.0615385,8.765625 L14.7692308,8.765625 C14.3614154,8.765625 14.0307692,9.12242578 14.0307692,9.5625 C14.0307692,10.0025742 14.3614154,10.359375 14.7692308,10.359375 Z" id="Shape"></path>
                <path d="M33.2307692,11.953125 L14.7692308,11.953125 C14.3614154,11.953125 14.0307692,12.3099258 14.0307692,12.75 C14.0307692,13.1900742 14.3614154,13.546875 14.7692308,13.546875 L33.2307692,13.546875 C33.6385846,13.546875 33.9692308,13.1900742 33.9692308,12.75 C33.9692308,12.3099258 33.6385846,11.953125 33.2307692,11.953125 Z" id="Shape"></path>
                <path d="M14.7692308,16.734375 L31.0153846,16.734375 C31.4232,16.734375 31.7538462,16.3775742 31.7538462,15.9375 C31.7538462,15.4974258 31.4232,15.140625 31.0153846,15.140625 L14.7692308,15.140625 C14.3614154,15.140625 14.0307692,15.4974258 14.0307692,15.9375 C14.0307692,16.3775742 14.3614154,16.734375 14.7692308,16.734375 Z" id="Shape"></path>
                <path d="M11.0769231,34.265625 L5.16923077,34.265625 C4.76141538,34.265625 4.43076923,34.6224258 4.43076923,35.0625 L4.43076923,41.4375 C4.43076923,41.8775742 4.76141538,42.234375 5.16923077,42.234375 L11.0769231,42.234375 C11.4847385,42.234375 11.8153846,41.8775742 11.8153846,41.4375 L11.8153846,35.0625 C11.8153846,34.6224258 11.4847385,34.265625 11.0769231,34.265625 Z M10.3384615,40.640625 L5.90769231,40.640625 L5.90769231,35.859375 L10.3384615,35.859375 L10.3384615,40.640625 Z" id="Shape"></path>
                <path d="M14.7692308,35.859375 L28.0615385,35.859375 C28.4693538,35.859375 28.8,35.5025742 28.8,35.0625 C28.8,34.6224258 28.4693538,34.265625 28.0615385,34.265625 L14.7692308,34.265625 C14.3614154,34.265625 14.0307692,34.6224258 14.0307692,35.0625 C14.0307692,35.5025742 14.3614154,35.859375 14.7692308,35.859375 Z" id="Shape"></path>
                <path d="M33.2307692,37.453125 L14.7692308,37.453125 C14.3614154,37.453125 14.0307692,37.8099258 14.0307692,38.25 C14.0307692,38.6900742 14.3614154,39.046875 14.7692308,39.046875 L33.2307692,39.046875 C33.6385846,39.046875 33.9692308,38.6900742 33.9692308,38.25 C33.9692308,37.8099258 33.6385846,37.453125 33.2307692,37.453125 Z" id="Shape"></path>
                <path d="M31.0153846,40.640625 L14.7692308,40.640625 C14.3614154,40.640625 14.0307692,40.9974258 14.0307692,41.4375 C14.0307692,41.8775742 14.3614154,42.234375 14.7692308,42.234375 L31.0153846,42.234375 C31.4232,42.234375 31.7538462,41.8775742 31.7538462,41.4375 C31.7538462,40.9974258 31.4232,40.640625 31.0153846,40.640625 Z" id="Shape"></path>
                <path d="M11.0769231,21.515625 L5.16923077,21.515625 C4.76141538,21.515625 4.43076923,21.8724258 4.43076923,22.3125 L4.43076923,28.6875 C4.43076923,29.1275742 4.76141538,29.484375 5.16923077,29.484375 L11.0769231,29.484375 C11.4847385,29.484375 11.8153846,29.1275742 11.8153846,28.6875 L11.8153846,22.3125 C11.8153846,21.8724258 11.4847385,21.515625 11.0769231,21.515625 Z M10.3384615,27.890625 L5.90769231,27.890625 L5.90769231,23.109375 L10.3384615,23.109375 L10.3384615,27.890625 Z" id="Shape"></path>
                <path d="M14.7692308,23.109375 L28.0615385,23.109375 C28.4693538,23.109375 28.8,22.7525742 28.8,22.3125 C28.8,21.8724258 28.4693538,21.515625 28.0615385,21.515625 L14.7692308,21.515625 C14.3614154,21.515625 14.0307692,21.8724258 14.0307692,22.3125 C14.0307692,22.7525742 14.3614154,23.109375 14.7692308,23.109375 Z" id="Shape"></path>
                <path d="M33.2307692,24.703125 L14.7692308,24.703125 C14.3614154,24.703125 14.0307692,25.0599258 14.0307692,25.5 C14.0307692,25.9400742 14.3614154,26.296875 14.7692308,26.296875 L33.2307692,26.296875 C33.6385846,26.296875 33.9692308,25.9400742 33.9692308,25.5 C33.9692308,25.0599258 33.6385846,24.703125 33.2307692,24.703125 Z" id="Shape"></path>
                <path d="M14.7692308,29.484375 L31.0153846,29.484375 C31.4232,29.484375 31.7538462,29.1275742 31.7538462,28.6875 C31.7538462,28.2474258 31.4232,27.890625 31.0153846,27.890625 L14.7692308,27.890625 C14.3614154,27.890625 14.0307692,28.2474258 14.0307692,28.6875 C14.0307692,29.1275742 14.3614154,29.484375 14.7692308,29.484375 Z" id="Shape"></path>
                <path d="M12.0316615,7.40525977 L10.7710154,8.765625 L7.38461538,8.765625 C6.9768,8.765625 6.64615385,9.12242578 6.64615385,9.5625 C6.64615385,10.0025742 6.9768,10.359375 7.38461538,10.359375 L9.29409231,10.359375 L7.38461538,12.4198945 L4.95295385,9.79588477 C4.66458462,9.48480469 4.19704615,9.48480469 3.90867692,9.79588477 C3.62021538,10.1071641 3.62021538,10.6115859 3.90867692,10.9228652 L4.43076923,11.4863555 L4.43076923,15.9375 C4.43076923,16.3775742 4.76141538,16.734375 5.16923077,16.734375 L11.0769231,16.734375 C11.4847385,16.734375 11.8153846,16.3775742 11.8153846,15.9375 L11.8153846,13.5466758 C11.8153846,13.1066016 11.4847385,12.7498008 11.0769231,12.7498008 C10.6691077,12.7498008 10.3384615,13.1066016 10.3384615,13.5466758 L10.3384615,15.140625 L5.90769231,15.140625 L5.90769231,13.0801055 L6.86243077,14.1103652 C7.00661538,14.2659551 7.19556923,14.34375 7.38461538,14.34375 C7.57366154,14.34375 7.76261538,14.2659551 7.9068,14.1103652 L13.0760308,8.53224023 C13.3644923,8.22096094 13.3644923,7.71653906 13.0760308,7.40525977 C12.7876615,7.09417969 12.3200308,7.09417969 12.0316615,7.40525977 Z" id="Shape"></path>
            </g>
        </g>
    </g>
</svg>