<?xml version="1.0" encoding="UTF-8"?>
<svg width="55px" height="55px" viewBox="0 0 55 55" version="1.1" xmlns="http://www.w3.org/2000/svg" xmlns:xlink="http://www.w3.org/1999/xlink">
    <!-- Generator: Sketch 46.2 (44496) - http://www.bohemiancoding.com/sketch -->
    <title>Group 4</title>
    <desc>Created with Sketch.</desc>
    <defs></defs>
    <g id="Symbols" stroke="none" stroke-width="1" fill="none" fill-rule="evenodd">
        <g id="Group-4">
            <rect id="Rectangle-5" fill-opacity="0.01" fill="#FFFFFF" x="0" y="0" width="55" height="55"></rect>
            <g id="icon-copy" transform="translate(7.000000, 2.000000)" fill-rule="nonzero" fill="#00B5FF">
                <path d="M37.6,0 L2.4,0 C1.0766,0 0,1.07239453 0,2.390625 L0,48.609375 C0,49.9275059 1.0766,51 2.4,51 L37.6,51 C38.9234,51 40,49.9275059 40,48.609375 L40,2.390625 C40,1.07239453 38.9234,0 37.6,0 Z M2.4,1.59375 L37.6,1.59375 C38.0411,1.59375 38.4,1.95124805 38.4,2.390625 L38.4,22.3125 L1.6,22.3125 L1.6,2.390625 C1.6,1.95124805 1.9589,1.59375 2.4,1.59375 Z M37.6,49.40625 L2.4,49.40625 C1.9589,49.40625 1.6,49.048752 1.6,48.609375 L1.6,23.90625 L38.4,23.90625 L38.4,48.609375 C38.4,49.048752 38.0411,49.40625 37.6,49.40625 Z" id="Shape"></path>
                <path d="M11.2,13.546875 C13.4056,13.546875 15.2,11.7594844 15.2,9.5625 L15.2,8.765625 C15.2,6.56864063 13.4056,4.78125 11.2,4.78125 C8.9944,4.78125 7.2,6.56864063 7.2,8.765625 L7.2,9.5625 C7.2,11.7594844 8.9944,13.546875 11.2,13.546875 Z M8.8,8.765625 C8.8,7.44739453 9.8766,6.375 11.2,6.375 C12.5234,6.375 13.6,7.44739453 13.6,8.765625 L13.6,9.5625 C13.6,10.8807305 12.5234,11.953125 11.2,11.953125 C9.8766,11.953125 8.8,10.8807305 8.8,9.5625 L8.8,8.765625 Z" id="Shape"></path>
                <path d="M6.2672,19.921875 L16.1361,19.921875 C16.9432,19.921875 17.5999,19.2677402 17.5999,18.4636934 L17.5999,16.734375 C17.5999,16.0406953 17.2755,15.2644395 16.7321,14.6578184 C16.1053,13.9582617 15.2797,13.5729727 14.4071,13.5729727 L13.7281,13.5729727 C13.4503,13.5729727 13.1924,13.7165098 13.0468,13.9522852 C12.5803,14.7074238 11.9072,15.140625 11.2,15.140625 C10.4928,15.140625 9.8197,14.7074238 9.3531,13.9522852 C9.2075,13.7166094 8.9496,13.5729727 8.6718,13.5729727 L7.9928,13.5729727 C6.1947,13.5729727 4.8,15.2724082 4.8,16.734375 L4.8,18.4604063 C4.8,19.2662461 5.4582,19.921875 6.2672,19.921875 Z M6.4,16.734375 C6.4,16.1960859 7.0203,15.1667227 7.9928,15.1667227 L8.2496,15.1667227 C9.0066,16.1686934 10.0612,16.734375 11.2,16.734375 C12.3388,16.734375 13.3934,16.1686934 14.1503,15.1667227 L14.4071,15.1667227 C15.3796,15.1667227 15.9999,16.1960859 15.9999,16.734375 L15.9999,18.328125 L6.3999,18.328125 L6.3999,16.734375 L6.4,16.734375 Z" id="Shape"></path>
                <path d="M20,7.171875 L28.8,7.171875 C29.2418,7.171875 29.6,6.81507422 29.6,6.375 C29.6,5.93492578 29.2418,5.578125 28.8,5.578125 L20,5.578125 C19.5582,5.578125 19.2,5.93492578 19.2,6.375 C19.2,6.81507422 19.5582,7.171875 20,7.171875 Z" id="Shape"></path>
                <path d="M20,13.546875 L22.4,13.546875 C22.8418,13.546875 23.2,13.1900742 23.2,12.75 C23.2,12.3099258 22.8418,11.953125 22.4,11.953125 L20,11.953125 C19.5582,11.953125 19.2,12.3099258 19.2,12.75 C19.2,13.1900742 19.5582,13.546875 20,13.546875 Z" id="Shape"></path>
                <path d="M28,11.953125 L25.6,11.953125 C25.1582,11.953125 24.8,12.3099258 24.8,12.75 C24.8,13.1900742 25.1582,13.546875 25.6,13.546875 L28,13.546875 C28.4418,13.546875 28.8,13.1900742 28.8,12.75 C28.8,12.3099258 28.4418,11.953125 28,11.953125 Z" id="Shape"></path>
                <path d="M33.6,11.953125 L31.2,11.953125 C30.7582,11.953125 30.4,12.3099258 30.4,12.75 C30.4,13.1900742 30.7582,13.546875 31.2,13.546875 L33.6,13.546875 C34.0418,13.546875 34.4,13.1900742 34.4,12.75 C34.4,12.3099258 34.0418,11.953125 33.6,11.953125 Z" id="Shape"></path>
                <path d="M20,10.359375 L33.6,10.359375 C34.0418,10.359375 34.4,10.0025742 34.4,9.5625 C34.4,9.12242578 34.0418,8.765625 33.6,8.765625 L20,8.765625 C19.5582,8.765625 19.2,9.12242578 19.2,9.5625 C19.2,10.0025742 19.5582,10.359375 20,10.359375 Z" id="Shape"></path>
                <path d="M5.6,27.890625 L7.2,27.890625 C7.6418,27.890625 8,27.5338242 8,27.09375 C8,26.6536758 7.6418,26.296875 7.2,26.296875 L5.6,26.296875 C5.1582,26.296875 4.8,26.6536758 4.8,27.09375 C4.8,27.5338242 5.1582,27.890625 5.6,27.890625 Z" id="Shape"></path>
                <path d="M34.4,26.296875 L11.2,26.296875 C10.7582,26.296875 10.4,26.6536758 10.4,27.09375 C10.4,27.5338242 10.7582,27.890625 11.2,27.890625 L34.4,27.890625 C34.8418,27.890625 35.2,27.5338242 35.2,27.09375 C35.2,26.6536758 34.8418,26.296875 34.4,26.296875 Z" id="Shape"></path>
                <path d="M5.6,31.078125 L7.2,31.078125 C7.6418,31.078125 8,30.7213242 8,30.28125 C8,29.8411758 7.6418,29.484375 7.2,29.484375 L5.6,29.484375 C5.1582,29.484375 4.8,29.8411758 4.8,30.28125 C4.8,30.7213242 5.1582,31.078125 5.6,31.078125 Z" id="Shape"></path>
                <path d="M34.4,29.484375 L11.2,29.484375 C10.7582,29.484375 10.4,29.8411758 10.4,30.28125 C10.4,30.7213242 10.7582,31.078125 11.2,31.078125 L34.4,31.078125 C34.8418,31.078125 35.2,30.7213242 35.2,30.28125 C35.2,29.8411758 34.8418,29.484375 34.4,29.484375 Z" id="Shape"></path>
                <path d="M24.8,34.265625 L5.6,34.265625 C5.1582,34.265625 4.8,34.6224258 4.8,35.0625 C4.8,35.5025742 5.1582,35.859375 5.6,35.859375 L24.8,35.859375 C25.2418,35.859375 25.6,35.5025742 25.6,35.0625 C25.6,34.6224258 25.2418,34.265625 24.8,34.265625 Z" id="Shape"></path>
                <path d="M21.6,40.640625 L5.6,40.640625 C5.1582,40.640625 4.8,40.9974258 4.8,41.4375 C4.8,41.8775742 5.1582,42.234375 5.6,42.234375 L21.6,42.234375 C22.0418,42.234375 22.4,41.8775742 22.4,41.4375 C22.4,40.9974258 22.0418,40.640625 21.6,40.640625 Z" id="Shape"></path>
                <path d="M5.6,39.046875 L18.4,39.046875 C18.8418,39.046875 19.2,38.6900742 19.2,38.25 C19.2,37.8099258 18.8418,37.453125 18.4,37.453125 L5.6,37.453125 C5.1582,37.453125 4.8,37.8099258 4.8,38.25 C4.8,38.6900742 5.1582,39.046875 5.6,39.046875 Z" id="Shape"></path>
                <path d="M14.4,43.828125 L5.6,43.828125 C5.1582,43.828125 4.8,44.1849258 4.8,44.625 C4.8,45.0650742 5.1582,45.421875 5.6,45.421875 L14.4,45.421875 C14.8418,45.421875 15.2,45.0650742 15.2,44.625 C15.2,44.1849258 14.8418,43.828125 14.4,43.828125 Z" id="Shape"></path>
                <path d="M34.4,43.828125 L31.2,43.828125 C30.7582,43.828125 30.4,44.1849258 30.4,44.625 C30.4,45.0650742 30.7582,45.421875 31.2,45.421875 L34.4,45.421875 C34.8418,45.421875 35.2,45.0650742 35.2,44.625 C35.2,44.1849258 34.8418,43.828125 34.4,43.828125 Z" id="Shape"></path>
                <path d="M34.4,40.640625 L32.8,40.640625 C32.3582,40.640625 32,40.9974258 32,41.4375 C32,41.8775742 32.3582,42.234375 32.8,42.234375 L34.4,42.234375 C34.8418,42.234375 35.2,41.8775742 35.2,41.4375 C35.2,40.9974258 34.8418,40.640625 34.4,40.640625 Z" id="Shape"></path>
            </g>
        </g>
    </g>
</svg>