<?xml version="1.0" encoding="UTF-8"?>
<svg width="60px" height="60px" viewBox="0 0 60 60" version="1.1" xmlns="http://www.w3.org/2000/svg" xmlns:xlink="http://www.w3.org/1999/xlink">
    <!-- Generator: Sketch 51.1 (57501) - http://www.bohemiancoding.com/sketch -->
    <title>if_Artboard_17_3030706</title>
    <desc>Created with Sketch.</desc>
    <defs></defs>
    <g id="help-center" stroke="none" stroke-width="1" fill="none" fill-rule="evenodd">
        <g id="Help-center-login" transform="translate(-518.000000, -936.000000)" fill="#00ACC1" fill-rule="nonzero">
            <g id="Group-4" transform="translate(0.000000, 673.000000)">
                <g id="if_Artboard_17_3030706" transform="translate(518.000000, 263.000000)">
                    <path d="M1.81818182,59.0909091 C1.55870595,59.0924843 1.31092326,58.9831049 1.13724392,58.7903208 C0.963564581,58.5975367 0.880543256,58.3397237 0.909090909,58.0818182 L2.51818182,43.6363636 C2.54310033,43.4329731 2.63600201,43.2439662 2.78181818,43.1 L35.8454545,10 L37.1272727,11.2818182 L4.29090909,44.1363636 L2.81818182,57.1818182 L15.8636364,55.7090909 L48.7,22.8636364 L50,24.1545455 L16.9181818,57.2181818 C16.7742156,57.363998 16.5852087,57.4568997 16.3818182,57.4818182 L1.89090909,59.0909091 L1.81818182,59.0909091 Z" id="Shape"></path>
                    <path d="M51.6,22.5363636 L50.3181818,21.2545455 L56.9363636,14.6363636 L45.3545455,3.06363636 L38.7454545,9.68181818 L37.4545455,8.4 L44.7272727,1.12727273 C45.0818522,0.774796732 45.6545114,0.774796732 46.0090909,1.12727273 L58.8545455,13.9909091 C59.2070214,14.3454886 59.2070214,14.9181478 58.8545455,15.2727273 L51.6,22.5363636 Z" id="Shape"></path>
                </g>
            </g>
        </g>
    </g>
</svg>