<?xml version="1.0" encoding="UTF-8"?>
<svg width="889px" height="486px" viewBox="0 0 889 486" version="1.1" xmlns="http://www.w3.org/2000/svg" xmlns:xlink="http://www.w3.org/1999/xlink">
    <!-- Generator: Sketch 51.2 (57519) - http://www.bohemiancoding.com/sketch -->
    <title>Group 2</title>
    <desc>Created with Sketch.</desc>
    <defs></defs>
    <g id="Error-404" stroke="none" stroke-width="1" fill="none" fill-rule="evenodd">
        <g id="404-error" transform="translate(-527.000000, -224.000000)">
            <g id="Group-2" transform="translate(523.000000, 220.000000)">
                <g id="Group-3" opacity="0.318080357" transform="translate(136.609980, 83.609980) rotate(-22.000000) translate(-136.609980, -83.609980) translate(103.109980, 50.109980)" fill-rule="nonzero">
                    <rect id="Rectangle" fill="#D8D8D8" transform="translate(13.808315, 13.500000) rotate(-44.000000) translate(-13.808315, -13.500000) " x="9.30831511" y="0" width="9" height="27"></rect>
                    <rect id="Rectangle" fill="#D8D8D8" transform="translate(13.808315, 13.500000) rotate(-133.000000) translate(-13.808315, -13.500000) " x="9.30831511" y="0" width="9" height="27"></rect>
                    <rect id="Rectangle" fill="#D8D8D8" transform="translate(53.808315, 13.500000) rotate(-44.000000) translate(-53.808315, -13.500000) " x="49.3083151" y="0" width="9" height="27"></rect>
                    <rect id="Rectangle" fill="#D8D8D8" transform="translate(53.808315, 13.500000) rotate(-133.000000) translate(-53.808315, -13.500000) " x="49.3083151" y="0" width="9" height="27"></rect>
                    <path d="M10,66.4390226 C19.5416667,57.9572517 27.1901042,53.7163663 32.9453125,53.7163663 C38.7005208,53.7163663 46.3489583,57.9572517 55.890625,66.4390226" id="Path-2" stroke="#D8D8D8" stroke-width="8"></path>
                </g>
                <g id="Group-3" opacity="0.318080357" transform="translate(46.505721, 377.505721) rotate(-34.000000) translate(-46.505721, -377.505721) translate(13.005721, 344.005721)" fill-rule="nonzero">
                    <rect id="Rectangle" fill="#D8D8D8" transform="translate(13.808315, 13.500000) rotate(-44.000000) translate(-13.808315, -13.500000) " x="9.30831511" y="0" width="9" height="27"></rect>
                    <rect id="Rectangle" fill="#D8D8D8" transform="translate(13.808315, 13.500000) rotate(-133.000000) translate(-13.808315, -13.500000) " x="9.30831511" y="0" width="9" height="27"></rect>
                    <rect id="Rectangle" fill="#D8D8D8" transform="translate(53.808315, 13.500000) rotate(-44.000000) translate(-53.808315, -13.500000) " x="49.3083151" y="0" width="9" height="27"></rect>
                    <rect id="Rectangle" fill="#D8D8D8" transform="translate(53.808315, 13.500000) rotate(-133.000000) translate(-53.808315, -13.500000) " x="49.3083151" y="0" width="9" height="27"></rect>
                    <path d="M10,66.4390226 C19.5416667,57.9572517 27.1901042,53.7163663 32.9453125,53.7163663 C38.7005208,53.7163663 46.3489583,57.9572517 55.890625,66.4390226" id="Path-2" stroke="#D8D8D8" stroke-width="8"></path>
                </g>
                <g id="Group-3" opacity="0.318080357" transform="translate(103.000000, 214.000000)" fill-rule="nonzero">
                    <rect id="Rectangle" fill="#D8D8D8" transform="translate(13.808315, 13.500000) rotate(-44.000000) translate(-13.808315, -13.500000) " x="9.30831511" y="0" width="9" height="27"></rect>
                    <rect id="Rectangle" fill="#D8D8D8" transform="translate(13.808315, 13.500000) rotate(-133.000000) translate(-13.808315, -13.500000) " x="9.30831511" y="0" width="9" height="27"></rect>
                    <rect id="Rectangle" fill="#D8D8D8" transform="translate(53.808315, 13.500000) rotate(-44.000000) translate(-53.808315, -13.500000) " x="49.3083151" y="0" width="9" height="27"></rect>
                    <rect id="Rectangle" fill="#D8D8D8" transform="translate(53.808315, 13.500000) rotate(-133.000000) translate(-53.808315, -13.500000) " x="49.3083151" y="0" width="9" height="27"></rect>
                    <path d="M10,66.4390226 C19.5416667,57.9572517 27.1901042,53.7163663 32.9453125,53.7163663 C38.7005208,53.7163663 46.3489583,57.9572517 55.890625,66.4390226" id="Path-2" stroke="#D8D8D8" stroke-width="8"></path>
                </g>
                <g id="Group-3" opacity="0.318080357" transform="translate(538.177257, 174.177257) rotate(13.000000) translate(-538.177257, -174.177257) translate(504.677257, 140.677257)" fill-rule="nonzero">
                    <rect id="Rectangle" fill="#D8D8D8" transform="translate(13.808315, 13.500000) rotate(-44.000000) translate(-13.808315, -13.500000) " x="9.30831511" y="0" width="9" height="27"></rect>
                    <rect id="Rectangle" fill="#D8D8D8" transform="translate(13.808315, 13.500000) rotate(-133.000000) translate(-13.808315, -13.500000) " x="9.30831511" y="0" width="9" height="27"></rect>
                    <rect id="Rectangle" fill="#D8D8D8" transform="translate(53.808315, 13.500000) rotate(-44.000000) translate(-53.808315, -13.500000) " x="49.3083151" y="0" width="9" height="27"></rect>
                    <rect id="Rectangle" fill="#D8D8D8" transform="translate(53.808315, 13.500000) rotate(-133.000000) translate(-53.808315, -13.500000) " x="49.3083151" y="0" width="9" height="27"></rect>
                    <path d="M10,66.4390226 C19.5416667,57.9572517 27.1901042,53.7163663 32.9453125,53.7163663 C38.7005208,53.7163663 46.3489583,57.9572517 55.890625,66.4390226" id="Path-2" stroke="#D8D8D8" stroke-width="8"></path>
                </g>
                <g id="Group-3" opacity="0.318080357" transform="translate(281.540882, 45.540882) rotate(-29.000000) translate(-281.540882, -45.540882) translate(248.040882, 12.040882)" fill-rule="nonzero">
                    <rect id="Rectangle" fill="#D8D8D8" transform="translate(13.808315, 13.500000) rotate(-44.000000) translate(-13.808315, -13.500000) " x="9.30831511" y="0" width="9" height="27"></rect>
                    <rect id="Rectangle" fill="#D8D8D8" transform="translate(13.808315, 13.500000) rotate(-133.000000) translate(-13.808315, -13.500000) " x="9.30831511" y="0" width="9" height="27"></rect>
                    <rect id="Rectangle" fill="#D8D8D8" transform="translate(53.808315, 13.500000) rotate(-44.000000) translate(-53.808315, -13.500000) " x="49.3083151" y="0" width="9" height="27"></rect>
                    <rect id="Rectangle" fill="#D8D8D8" transform="translate(53.808315, 13.500000) rotate(-133.000000) translate(-53.808315, -13.500000) " x="49.3083151" y="0" width="9" height="27"></rect>
                    <path d="M10,66.4390226 C19.5416667,57.9572517 27.1901042,53.7163663 32.9453125,53.7163663 C38.7005208,53.7163663 46.3489583,57.9572517 55.890625,66.4390226" id="Path-2" stroke="#D8D8D8" stroke-width="8"></path>
                </g>
                <g id="Group-3" opacity="0.318080357" transform="translate(850.292240, 407.292240) rotate(-5.000000) translate(-850.292240, -407.292240) translate(816.792240, 373.792240)" fill-rule="nonzero">
                    <rect id="Rectangle" fill="#D8D8D8" transform="translate(13.808315, 13.500000) rotate(-44.000000) translate(-13.808315, -13.500000) " x="9.30831511" y="0" width="9" height="27"></rect>
                    <rect id="Rectangle" fill="#D8D8D8" transform="translate(13.808315, 13.500000) rotate(-133.000000) translate(-13.808315, -13.500000) " x="9.30831511" y="0" width="9" height="27"></rect>
                    <rect id="Rectangle" fill="#D8D8D8" transform="translate(53.808315, 13.500000) rotate(-44.000000) translate(-53.808315, -13.500000) " x="49.3083151" y="0" width="9" height="27"></rect>
                    <rect id="Rectangle" fill="#D8D8D8" transform="translate(53.808315, 13.500000) rotate(-133.000000) translate(-53.808315, -13.500000) " x="49.3083151" y="0" width="9" height="27"></rect>
                    <path d="M10,66.4390226 C19.5416667,57.9572517 27.1901042,53.7163663 32.9453125,53.7163663 C38.7005208,53.7163663 46.3489583,57.9572517 55.890625,66.4390226" id="Path-2" stroke="#D8D8D8" stroke-width="8"></path>
                </g>
                <g id="Group-3" opacity="0.318080357" transform="translate(296.436118, 172.436118) rotate(16.000000) translate(-296.436118, -172.436118) translate(262.936118, 138.936118)" fill-rule="nonzero">
                    <rect id="Rectangle" fill="#D8D8D8" transform="translate(13.808315, 13.500000) rotate(-44.000000) translate(-13.808315, -13.500000) " x="9.30831511" y="0" width="9" height="27"></rect>
                    <rect id="Rectangle" fill="#D8D8D8" transform="translate(13.808315, 13.500000) rotate(-133.000000) translate(-13.808315, -13.500000) " x="9.30831511" y="0" width="9" height="27"></rect>
                    <rect id="Rectangle" fill="#D8D8D8" transform="translate(53.808315, 13.500000) rotate(-44.000000) translate(-53.808315, -13.500000) " x="49.3083151" y="0" width="9" height="27"></rect>
                    <rect id="Rectangle" fill="#D8D8D8" transform="translate(53.808315, 13.500000) rotate(-133.000000) translate(-53.808315, -13.500000) " x="49.3083151" y="0" width="9" height="27"></rect>
                    <path d="M10,66.4390226 C19.5416667,57.9572517 27.1901042,53.7163663 32.9453125,53.7163663 C38.7005208,53.7163663 46.3489583,57.9572517 55.890625,66.4390226" id="Path-2" stroke="#D8D8D8" stroke-width="8"></path>
                </g>
                <g id="Group-3" opacity="0.318080357" transform="translate(616.000000, 6.000000)" fill-rule="nonzero">
                    <rect id="Rectangle" fill="#D8D8D8" transform="translate(13.808315, 13.500000) rotate(-44.000000) translate(-13.808315, -13.500000) " x="9.30831511" y="0" width="9" height="27"></rect>
                    <rect id="Rectangle" fill="#D8D8D8" transform="translate(13.808315, 13.500000) rotate(-133.000000) translate(-13.808315, -13.500000) " x="9.30831511" y="0" width="9" height="27"></rect>
                    <rect id="Rectangle" fill="#D8D8D8" transform="translate(53.808315, 13.500000) rotate(-44.000000) translate(-53.808315, -13.500000) " x="49.3083151" y="0" width="9" height="27"></rect>
                    <rect id="Rectangle" fill="#D8D8D8" transform="translate(53.808315, 13.500000) rotate(-133.000000) translate(-53.808315, -13.500000) " x="49.3083151" y="0" width="9" height="27"></rect>
                    <path d="M10,66.4390226 C19.5416667,57.9572517 27.1901042,53.7163663 32.9453125,53.7163663 C38.7005208,53.7163663 46.3489583,57.9572517 55.890625,66.4390226" id="Path-2" stroke="#D8D8D8" stroke-width="8"></path>
                </g>
                <g id="Group-3" opacity="0.318080357" transform="translate(451.000000, 12.000000)" fill-rule="nonzero">
                    <rect id="Rectangle" fill="#D8D8D8" transform="translate(13.808315, 13.500000) rotate(-44.000000) translate(-13.808315, -13.500000) " x="9.30831511" y="0" width="9" height="27"></rect>
                    <rect id="Rectangle" fill="#D8D8D8" transform="translate(13.808315, 13.500000) rotate(-133.000000) translate(-13.808315, -13.500000) " x="9.30831511" y="0" width="9" height="27"></rect>
                    <rect id="Rectangle" fill="#D8D8D8" transform="translate(53.808315, 13.500000) rotate(-44.000000) translate(-53.808315, -13.500000) " x="49.3083151" y="0" width="9" height="27"></rect>
                    <rect id="Rectangle" fill="#D8D8D8" transform="translate(53.808315, 13.500000) rotate(-133.000000) translate(-53.808315, -13.500000) " x="49.3083151" y="0" width="9" height="27"></rect>
                    <path d="M10,66.4390226 C19.5416667,57.9572517 27.1901042,53.7163663 32.9453125,53.7163663 C38.7005208,53.7163663 46.3489583,57.9572517 55.890625,66.4390226" id="Path-2" stroke="#D8D8D8" stroke-width="8"></path>
                </g>
                <g id="Group-3" opacity="0.318080357" transform="translate(743.519023, 218.519023) rotate(25.000000) translate(-743.519023, -218.519023) translate(710.019023, 185.019023)" fill-rule="nonzero">
                    <rect id="Rectangle" fill="#D8D8D8" transform="translate(13.808315, 13.500000) rotate(-44.000000) translate(-13.808315, -13.500000) " x="9.30831511" y="0" width="9" height="27"></rect>
                    <rect id="Rectangle" fill="#D8D8D8" transform="translate(13.808315, 13.500000) rotate(-133.000000) translate(-13.808315, -13.500000) " x="9.30831511" y="0" width="9" height="27"></rect>
                    <rect id="Rectangle" fill="#D8D8D8" transform="translate(53.808315, 13.500000) rotate(-44.000000) translate(-53.808315, -13.500000) " x="49.3083151" y="0" width="9" height="27"></rect>
                    <rect id="Rectangle" fill="#D8D8D8" transform="translate(53.808315, 13.500000) rotate(-133.000000) translate(-53.808315, -13.500000) " x="49.3083151" y="0" width="9" height="27"></rect>
                    <path d="M10,66.4390226 C19.5416667,57.9572517 27.1901042,53.7163663 32.9453125,53.7163663 C38.7005208,53.7163663 46.3489583,57.9572517 55.890625,66.4390226" id="Path-2" stroke="#D8D8D8" stroke-width="8"></path>
                </g>
                <g id="Group-3" opacity="0.318080357" transform="translate(857.926405, 116.926405) rotate(-23.000000) translate(-857.926405, -116.926405) translate(824.426405, 83.426405)" fill-rule="nonzero">
                    <rect id="Rectangle" fill="#D8D8D8" transform="translate(13.808315, 13.500000) rotate(-44.000000) translate(-13.808315, -13.500000) " x="9.30831511" y="0" width="9" height="27"></rect>
                    <rect id="Rectangle" fill="#D8D8D8" transform="translate(13.808315, 13.500000) rotate(-133.000000) translate(-13.808315, -13.500000) " x="9.30831511" y="0" width="9" height="27"></rect>
                    <rect id="Rectangle" fill="#D8D8D8" transform="translate(53.808315, 13.500000) rotate(-44.000000) translate(-53.808315, -13.500000) " x="49.3083151" y="0" width="9" height="27"></rect>
                    <rect id="Rectangle" fill="#D8D8D8" transform="translate(53.808315, 13.500000) rotate(-133.000000) translate(-53.808315, -13.500000) " x="49.3083151" y="0" width="9" height="27"></rect>
                    <path d="M10,66.4390226 C19.5416667,57.9572517 27.1901042,53.7163663 32.9453125,53.7163663 C38.7005208,53.7163663 46.3489583,57.9572517 55.890625,66.4390226" id="Path-2" stroke="#D8D8D8" stroke-width="8"></path>
                </g>
                <g id="Group-4" transform="translate(226.000000, 225.000000)" fill="#03363E" fill-opacity="0.87" font-family="Roboto-Light, Roboto" font-size="250" font-weight="300">
                    <text id="404">
                        <tspan x="0" y="262">404</tspan>
                    </text>
                </g>
                <g id="Group" transform="translate(417.500000, 371.783634) rotate(-44.000000) translate(-417.500000, -371.783634) translate(403.000000, 358.283634)" fill="#224F56" fill-rule="nonzero">
                    <rect id="Rectangle" x="10" y="0" width="9" height="27"></rect>
                    <rect id="Rectangle" transform="translate(14.500000, 13.500000) rotate(-89.000000) translate(-14.500000, -13.500000) " x="10" y="0" width="9" height="27"></rect>
                </g>
                <g id="Group" transform="translate(457.500000, 371.783634) rotate(-44.000000) translate(-457.500000, -371.783634) translate(443.000000, 358.283634)" fill="#224F56" fill-rule="nonzero">
                    <rect id="Rectangle" x="10" y="0" width="9" height="27"></rect>
                    <rect id="Rectangle" transform="translate(14.500000, 13.500000) rotate(-89.000000) translate(-14.500000, -13.500000) " x="10" y="0" width="9" height="27"></rect>
                </g>
                <path d="M414,437.722656 C423.541667,429.240885 431.190104,425 436.945312,425 C442.700521,425 450.348958,429.240885 459.890625,437.722656" id="Path-2" stroke="#224F56" stroke-width="8" fill-rule="nonzero"></path>
            </g>
        </g>
    </g>
</svg>